<svg xmlns="http://www.w3.org/2000/svg" width="891.248" height="854.891" viewBox="0 0 891.248 854.891"> 
  <path id="Big_Left_Blob" data-name="Big Left Blob" d="M185.569,245.686c94.08-6.773,191.951-9.192,273.353,38.458,86.117,50.411,165.761,129.8,182.211,228.217,15.879,95-61.652,175.2-100.017,263.547-33.706,77.618-47.761,164.93-110.64,221.563-67.037,60.377-154.98,105.91-244.908,98.661-87.45-7.05-156.744-72.967-217.807-135.964-52.581-54.243-70.377-127.474-103.408-195.416C-175.757,682.251-261.5,610.544-246.19,520.1c15.5-91.561,107.205-148.738,185.58-198.549C13.677,274.332,97.775,252.007,185.569,245.686Z" transform="translate(248 -242)" fill="#00f7ef" fill-rule="evenodd" />
</svg>
