<svg xmlns="http://www.w3.org/2000/svg" width="847.862" height="897.55" viewBox="0 0 847.862 897.55">
  <path id="Big_Right_Blob" data-name="Big Right Blob" d="M1321.309.146C1423.7-2.63,1525.268,34.274,1604.09,99.707c75.761,62.9,125.913,154.307,140.345,251.723,13.13,88.56-29.612,171.658-65.457,253.7-32.216,73.776-68.587,144.931-130.913,195.887-65.193,53.3-142.547,96.193-226.757,96.532-84.39.339-157.353-48.677-228.086-94.7C1018.54,754.239,924.013,711.467,902.5,625c-21.364-85.851,61.189-159.313,85.675-244.326,25.808-89.6-.132-195.764,61.285-265.923C1115.867,38.9,1220.548,2.879,1321.309.146Z" transform="translate(-899)" fill="#ff004f" fill-rule="evenodd"/>
</svg>
