<svg xmlns="http://www.w3.org/2000/svg" width="1920" height="675.001"  preserveAspectRatio="none" viewBox="0 0 1920 675.001">
  <path id="Black_Curve" fill="#121212" data-name="Black Curve" d="M1920,675H0v-.78c14.013-18.315,28.206-35.81,42.186-52,14.107-16.336,28.49-31.913,42.75-46.3,14.341-14.468,29.059-28.236,43.744-40.922,14.717-12.714,29.914-24.782,45.167-35.869,15.237-11.075,31.057-21.552,47.02-31.14,15.9-9.548,32.485-18.543,49.3-26.734,16.7-8.134,34.2-15.755,52.015-22.652,17.626-6.825,36.184-13.181,55.156-18.893,18.7-5.63,38.458-10.831,58.728-15.459,19.892-4.542,41-8.7,62.729-12.348,21.219-3.565,43.815-6.782,67.159-9.56,22.656-2.7,46.887-5.084,72.02-7.1,47.55-3.807,100-6.455,160.339-8.1,53.276-1.449,112.041-2.123,184.935-2.123,31.189,0,61.831-.365,91.077-1.084,29.7-.73,58.854-1.848,86.666-3.321,28.2-1.494,55.878-3.4,82.272-5.664,26.723-2.293,52.929-5.023,77.892-8.113,25.254-3.126,49.993-6.716,73.529-10.668,23.779-3.992,47.055-8.476,69.182-13.328,22.33-4.9,44.149-10.311,64.849-16.094,20.875-5.831,41.241-12.212,60.533-18.966C1747.739,212.314,1855.928,124.717,1920,0V675Z"/>
</svg>
