<svg xmlns="http://www.w3.org/2000/svg" width="413" height="840" viewBox="0 0 413 840">
  <g id="Bottom_Right_Graphic" data-name="Bottom Right Graphic" transform="translate(-1507 -720)">
    <g id="Group_2" data-name="Group 2" transform="translate(1507 720)">
      <rect id="Rectangle_16" data-name="Rectangle 16" width="58.937" height="60" transform="translate(118.687 300)" fill="#00a9ce"/>
      <path id="Path_23" data-name="Path 23" d="M177.812,300h28.937a30,30,0,0,1,0,60H177.812Z" transform="translate(-0.281)" fill="#ff004f"/>
      <path id="Path_24" data-name="Path 24" d="M177.812,240h28.937a30,30,0,0,1,0,60H177.812Z" transform="translate(-0.281)" fill="#00f7ef"/>
      <path id="Path_25" data-name="Path 25" d="M59.937,329.469A29.469,29.469,0,0,1,89.406,300h0a29.469,29.469,0,0,1,29.469,29.469V360H60.3a.358.358,0,0,1-.358-.358Z" fill="#ff004f"/>
      <path id="Path_26" data-name="Path 26" d="M413.561,120H354.623c0-16.568,13.194-30,29.469-30S413.561,103.432,413.561,120Z" transform="translate(-0.561)" fill="#00f7ef" fill-rule="evenodd"/>
      <rect id="Rectangle_17" data-name="Rectangle 17" width="58.937" height="60" transform="translate(295.125 300)" fill="#ff004f"/>
      <rect id="Rectangle_18" data-name="Rectangle 18" width="58.937" height="60" transform="translate(354.062 120)" fill="#00f7ef"/>
      <rect id="Rectangle_19" data-name="Rectangle 19" width="58.937" height="60" transform="translate(295.125 180)" fill="#ff004f"/>
      <path id="Path_27" data-name="Path 27" d="M295.686,180h28.937a30,30,0,0,1,30,30v29.513a.487.487,0,0,1-.487.487,58.45,58.45,0,0,1-58.45-58.45Z" transform="translate(-0.561)"/>
      <path id="Path_28" data-name="Path 28" d="M354.623,240h28.938a30,30,0,0,1,0,60H354.623Z" transform="translate(-0.561)" fill="#00f7ef"/>
      <path id="Path_29" data-name="Path 29" d="M354.623,300c-16.275,0-29.468-13.432-29.468-30s13.193-30,29.468-30Z" transform="translate(-0.561)" fill="#00f7ef" fill-rule="evenodd"/>
      <rect id="Rectangle_20" data-name="Rectangle 20" width="58.937" height="60" rx="29.469" transform="translate(236.374 240)" fill="#00a9ce"/>
      <rect id="Rectangle_21" data-name="Rectangle 21" width="58.937" height="60" transform="translate(354.062 180)" fill="#cd0040"/>
      <path id="Path_30" data-name="Path 30" d="M354.623,180c0,16.568-13.193,30-29.468,30C325.155,193.431,338.348,180,354.623,180Z" transform="translate(-0.561)" fill="#00a9ce" fill-rule="evenodd"/>
      <path id="Path_31" data-name="Path 31" d="M222.015,295.973a30.282,30.282,0,0,1,0-51.973,30.283,30.283,0,0,1,0,51.973Z" transform="translate(-0.303)" fill-rule="evenodd"/>
      <rect id="Rectangle_22" data-name="Rectangle 22" width="29.469" height="30" rx="14.734" transform="translate(368.797 135)" fill="#00a9ce"/>
      <rect id="Rectangle_23" data-name="Rectangle 23" width="29.469" height="30" rx="14.734" transform="translate(368.797 255)" fill="#ff004f"/>
      <path id="Path_32" data-name="Path 32" d="M266.217,330c0-16.568,13.194-30,29.469-30C295.686,316.569,282.492,330,266.217,330Z" transform="translate(-0.389)" fill-rule="evenodd"/>
      <path id="Path_33" data-name="Path 33" d="M354.623,30a30,30,0,0,1,30-30h28.938V60H384.623A30,30,0,0,1,354.623,30Z" transform="translate(-0.561)"/>
      <rect id="Rectangle_24" data-name="Rectangle 24" width="29.469" height="30" rx="14.734" transform="translate(368.797 15)" fill="#fff"/>
      <path id="Path_34" data-name="Path 34" d="M413.56,300c0,16.569-13.193,30-29.468,30C384.092,313.432,397.285,300,413.56,300Zm-58.937,60c0-16.568,13.194-30,29.469-30C384.092,346.569,370.9,360,354.623,360Zm29.471-30c-16.276,0-29.469-13.431-29.469-30C370.9,300,384.094,313.433,384.094,330Zm0,0c16.275,0,29.468,13.432,29.468,30C397.285,360,384.092,346.569,384.092,330Z" transform="translate(-0.561)" fill="#00f7ef" fill-rule="evenodd"/>
      <path id="Path_35" data-name="Path 35" d="M409.605,75a29.219,29.219,0,0,1-51.052,0,29.219,29.219,0,0,1,51.052,0Z" transform="translate(-0.561)" fill="#00a9ce" fill-rule="evenodd"/>
      <rect id="Rectangle_25" data-name="Rectangle 25" width="60" height="60" rx="30" transform="translate(0 360) rotate(-90)" fill="#cd0040"/>
      <rect id="Rectangle_26" data-name="Rectangle 26" width="30" height="30" rx="15" transform="translate(15 345) rotate(-90)"/>
    </g>
    <g id="Group_12" data-name="Group 12" transform="translate(1680 1080)">
      <rect id="Rectangle_75" data-name="Rectangle 75" width="60" height="60" transform="translate(240 240) rotate(90)"/>
      <rect id="Rectangle_76" data-name="Rectangle 76" width="60" height="60" transform="translate(240 180) rotate(90)"/>
      <path id="Union_15" data-name="Union 15" d="M-1620-1020v-60h30a30,30,0,0,1,30,30,30,30,0,0,1-30,30Zm-60,0v-60h60v60Z" transform="translate(1800 1260)" fill="#00f7ef"/>
      <path id="Path_125" data-name="Path 125" d="M150,120a30,30,0,0,1,0,60H120V120.358a.358.358,0,0,1,.358-.358Z" fill="#cd0040"/>
      <path id="Subtraction_2" data-name="Subtraction 2" d="M-1650-1019h-.009a29.791,29.791,0,0,1-11.669-2.357,29.9,29.9,0,0,1-9.536-6.429,29.9,29.9,0,0,1-6.429-9.536A29.814,29.814,0,0,1-1680-1049a29.812,29.812,0,0,1,2.358-11.677,29.9,29.9,0,0,1,6.429-9.536,29.9,29.9,0,0,1,9.536-6.429A29.814,29.814,0,0,1-1650-1079Z" transform="translate(1890 1289)" fill="#00f7ef"/>
      <path id="Path_126" data-name="Path 126" d="M120,180v60a30,30,0,1,1,0-60Z" fill="#06818e" fill-rule="evenodd"/>
      <path id="Subtraction_3" data-name="Subtraction 3" d="M-1680-1020h0a29.813,29.813,0,0,1,2.358-11.677,29.9,29.9,0,0,1,6.43-9.536,29.905,29.905,0,0,1,9.536-6.429,29.81,29.81,0,0,1,11.642-2.358,29.811,29.811,0,0,1-11.642-2.357,29.9,29.9,0,0,1-9.536-6.429,29.9,29.9,0,0,1-6.43-9.536A29.811,29.811,0,0,1-1680-1080a29.812,29.812,0,0,1,11.678,2.358,29.9,29.9,0,0,1,9.536,6.429,29.9,29.9,0,0,1,6.429,9.536A29.814,29.814,0,0,1-1650-1050h0a29.813,29.813,0,0,1-2.358,11.677,29.9,29.9,0,0,1-6.429,9.536,29.9,29.9,0,0,1-9.536,6.43A29.811,29.811,0,0,1-1680-1020Z" transform="translate(1890 1260)" fill="#06818e"/>
      <rect id="Rectangle_79" data-name="Rectangle 79" width="60" height="60" transform="translate(240 360) rotate(90)" fill="#ff004f"/>
      <rect id="Rectangle_80" data-name="Rectangle 80" width="60" height="60" transform="translate(180) rotate(90)" fill="#00f7ef"/>
      <rect id="Rectangle_81" data-name="Rectangle 81" width="60" height="60" transform="translate(240 300) rotate(90)" fill="#06818e"/>
      <rect id="Rectangle_82" data-name="Rectangle 82" width="60" height="60" transform="translate(60 0) rotate(90)" fill="#ff004f"/>
      <rect id="Rectangle_83" data-name="Rectangle 83" width="60" height="60" rx="30" transform="translate(120) rotate(90)" fill="#cd0040"/>
      <path id="Union_14" data-name="Union 14" d="M-1650-1020v-60h60v60Zm60-60a30,30,0,0,1,30,30,30,30,0,0,1-30,30Zm-90,30a30,30,0,0,1,30-30v60A30,30,0,0,1-1680-1050Z" transform="translate(1770 1140)" fill="#cd0040"/>
      <path id="Path_130" data-name="Path 130" d="M240,120a30,30,0,0,1-30-30A30,30,0,0,1,240,120Z" fill="#06818e" fill-rule="evenodd"/>
      <path id="Path_131" data-name="Path 131" d="M180,60a30,30,0,0,1,30,30A30,30,0,0,1,180,60Z" fill-rule="evenodd"/>
      <path id="Path_132" data-name="Path 132" d="M124.027,105A30.01,30.01,0,0,1,176,105a30.01,30.01,0,0,1-51.973,0Z" fill="#fff" fill-rule="evenodd"/>
      <path id="Path_133" data-name="Path 133" d="M180,240a30,30,0,0,1-30-30A30,30,0,0,1,180,240Z" fill-rule="evenodd"/>
      <path id="Path_134" data-name="Path 134" d="M180,60a30,30,0,0,1-30-30A30,30,0,0,1,180,60Z" fill="#00a9ce" fill-rule="evenodd"/>
      <path id="Path_135" data-name="Path 135" d="M0,60H60A30,30,0,0,1,0,60Z" fill="#ff004f" fill-rule="evenodd"/>
      <path id="Path_136" data-name="Path 136" d="M0,0A30,30,0,0,1,30,30,30,30,0,0,1,0,0Z" fill="#00a9ce" fill-rule="evenodd"/>
      <rect id="Rectangle_85" data-name="Rectangle 85" width="60" height="60" rx="30" transform="translate(240) rotate(90)" fill="#06818e"/>
      <path id="Path_137" data-name="Path 137" d="M165,355.973A30.01,30.01,0,0,1,165,304a30.01,30.01,0,0,1,0,51.973Z" fill="#00f7ef" fill-rule="evenodd"/>
      <path id="Path_138" data-name="Path 138" d="M120,0a30,30,0,0,1,30,30A30,30,0,0,1,120,0Z" fill="#06818e" fill-rule="evenodd"/>
      <rect id="Rectangle_86" data-name="Rectangle 86" width="30" height="30" rx="15" transform="translate(105 15) rotate(90)"/>
      <rect id="Rectangle_87" data-name="Rectangle 87" width="30" height="30" rx="15" transform="translate(45 75) rotate(90)"/>
      <rect id="Rectangle_88" data-name="Rectangle 88" width="30" height="30" rx="15" transform="translate(135 195) rotate(90)" fill="#ff004f"/>
      <path id="Path_139" data-name="Path 139" d="M210,420a30,30,0,0,1-30-30A30,30,0,0,1,210,420Zm-60-60a30,30,0,0,1,30,30A30,30,0,0,1,150,360Zm30,30a30,30,0,0,1,30-30A30,30,0,0,1,180,390Zm0,0a30,30,0,0,1-30,30A30,30,0,0,1,180,390Z" fill-rule="evenodd"/>
      <path id="Path_140" data-name="Path 140" d="M240,120v60H210a30,30,0,0,1,0-60Z" fill="#06818e"/>
      <path id="Path_141" data-name="Path 141" d="M210,150a30,30,0,0,1,30,30A30,30,0,0,1,210,150Z" fill="#ff004f" fill-rule="evenodd"/>
      <path id="Path_142" data-name="Path 142" d="M210,480a30,30,0,0,1-30-30V420h60v30A30,30,0,0,1,210,480Z"/>
      <rect id="Rectangle_89" data-name="Rectangle 89" width="30" height="30" rx="15" transform="translate(195 465) rotate(-90)" fill="#fff"/>
      <path id="Subtraction_1" data-name="Subtraction 1" d="M-1680-1018h0a29.813,29.813,0,0,1,2.354-11.667,29.9,29.9,0,0,1,6.419-9.531,29.9,29.9,0,0,1,9.522-6.432,29.811,29.811,0,0,1,11.662-2.369,29.814,29.814,0,0,1-11.662-2.37,29.905,29.905,0,0,1-9.522-6.432,29.906,29.906,0,0,1-6.419-9.531A29.813,29.813,0,0,1-1680-1078a29.815,29.815,0,0,1,11.668,2.353,29.9,29.9,0,0,1,9.531,6.419,29.9,29.9,0,0,1,6.432,9.521,29.814,29.814,0,0,1,2.37,11.662v.089a29.814,29.814,0,0,1-2.37,11.662,29.9,29.9,0,0,1-6.432,9.522,29.9,29.9,0,0,1-9.531,6.419A29.814,29.814,0,0,1-1680-1018Z" transform="translate(1890 1078)"/>
    </g>
  </g>
</svg>
