<svg xmlns="http://www.w3.org/2000/svg" width="280.274" height="318.278" viewBox="0 0 280.274 318.278">
  <g id="Group_6" data-name="Group 6" transform="translate(-0.863 -0.861)">
    <path id="Path_59" data-name="Path 59" d="M129.874,122.706c-13.234,14.47-32,23.168-55.2,23.168-18.857,0-35.306-5.7-47.851-15.649C39.9,146.663,60.529,156.54,85.339,156.54c23.2,0,41.968-8.708,55.2-23.169a10.015,10.015,0,0,0-1.589-15l-6.651-4.644A10.058,10.058,0,0,1,129.874,122.706Z" fill="#ff004f"/>
    <path id="Path_60" data-name="Path 60" d="M128.995,41.556l-16.44,9.078a10.1,10.1,0,0,1-12.415-2.257c-6.552-7.34-15.3-11.165-26.068-11.165-19.376,0-33.758,14.78-33.758,36.151,0,15.139,6.682,25.615,15.97,31.257-3.316-5.452-5.3-12.333-5.3-20.592,0-21.371,14.382-36.151,33.758-36.151,10.757,0,19.516,3.825,26.058,11.165A10.1,10.1,0,0,0,123.212,61.3l16.44-9.078a9.977,9.977,0,0,0,2.956-15.01A65.5,65.5,0,0,0,132.4,27.175,9.958,9.958,0,0,1,128.995,41.556Z" fill="#ff004f"/>
    <path id="Path_61" data-name="Path 61" d="M264.957,77.467A35.967,35.967,0,0,1,270.47,97.38c0,35.352-29.863,48.434-59.626,48.434-18.3,0-35.367-3.195-49.469-9.347a9.871,9.871,0,0,0,5.263,8.1c15.042,7.829,34.168,11.914,54.873,11.914,29.763,0,59.626-13.082,59.626-48.434C281.137,94.993,275.694,84.757,264.957,77.467Z" fill="#ff004f"/>
    <path id="Path_62" data-name="Path 62" d="M263.769,24.709,256.8,37.921a9.951,9.951,0,0,1-12.964,4.424,76.316,76.316,0,0,0-31.99-7.38c-10.188,0-17.978,2.8-17.978,9.088,0,4.464,4.574,6.661,11.126,8.229,1.788-4.574,8.759-6.651,17.519-6.651a76.469,76.469,0,0,1,31.99,7.38,9.97,9.97,0,0,0,12.964-4.424l6.972-13.212a10,10,0,0,0-4.785-13.791c-1.618-.719-3.2-1.378-4.744-2A10.046,10.046,0,0,1,263.769,24.709Z" fill="#ff004f"/>
    <path id="Path_63" data-name="Path 63" d="M202.943,90.6l-5.293-.9c-12.195-2.087-21.683-5.373-28.735-10.006,6.592,10.556,19.347,17.237,39.4,20.662l5.293.9c6.153,1.058,11.186,1.907,15.162,2.886a8.326,8.326,0,0,0,.249-1.967C229.021,94.894,220.332,93.6,202.943,90.6Z" fill="#ff004f"/>
    <path id="Path_64" data-name="Path 64" d="M226.485,178.021h-.679V297.189a9.991,9.991,0,0,1-9.988,9.986h-17.3v.679a9.991,9.991,0,0,0,9.988,9.987h17.978a9.99,9.99,0,0,0,9.987-9.987V188.007A9.99,9.99,0,0,0,226.485,178.021Z" fill="#ff004f"/>
    <path id="Path_65" data-name="Path 65" d="M145.275,176.722H144.6v72.132c0,38.049-21.773,59.619-61.924,59.619-16.959,0-30.622-3.864-40.77-11.175,10.167,14.2,27.546,21.841,51.436,21.841,40.15,0,61.924-21.571,61.924-59.619V186.709A9.991,9.991,0,0,0,145.275,176.722Z" fill="#ff004f"/>
    <path id="Path_66" data-name="Path 66" d="M71.586,270.106a30.143,30.143,0,0,1-2.117-11.685v-71.7a9.991,9.991,0,0,0-9.988-9.987h-.689v71.034C58.791,259.26,63.526,266.76,71.586,270.106Z" fill="#ff004f"/>
    <path id="Path_67" data-name="Path 67" d="M26.821,130.225C17.093,118.012,11.53,102.174,11.53,84.038c0-42.542,30.562-72.5,73.809-72.5,17.838,0,34.347,5.582,47.072,15.649-.15-.21-.29-.429-.45-.629C118.677,10.189,97.773.861,74.672.861,31.425.861.863,30.82.863,73.363.863,97.36,10.591,117.353,26.821,130.225Z" fill="#00f7ef"/>
    <path id="Path_68" data-name="Path 68" d="M84.839,120.179a35.288,35.288,0,0,0,26.418-11.065,9.938,9.938,0,0,1,12.834-1.138l8.21,5.732a9.852,9.852,0,0,0-4.015-6.022L113.424,97.3a9.927,9.927,0,0,0-12.834,1.138A35.286,35.286,0,0,1,74.172,109.5a34.4,34.4,0,0,1-17.888-4.9C62.547,114.926,73.543,120.179,84.839,120.179Z" fill="#00f7ef"/>
    <path id="Path_69" data-name="Path 69" d="M11.53,84.028c0,18.136,5.573,33.974,15.291,46.188,12.555,9.956,28.994,15.648,47.851,15.648,23.2,0,41.968-8.708,55.2-23.168a10.07,10.07,0,0,0,2.427-8.988l-8.21-5.732a9.927,9.927,0,0,0-12.834,1.138,35.287,35.287,0,0,1-26.418,11.065c-11.3,0-22.293-5.253-28.555-15.559C47,98.978,40.314,88.512,40.314,73.363c0-21.371,14.382-36.151,33.758-36.151,10.757,0,19.516,3.825,26.057,11.165a10.1,10.1,0,0,0,12.415,2.257l16.44-9.078a9.978,9.978,0,0,0,3.416-14.38c-12.715-10.066-29.224-15.649-47.072-15.649C42.092,11.527,11.53,41.486,11.53,84.028Z"/>
    <path id="Path_70" data-name="Path 70" d="M233.087,66.2l4.494.9q16.974,3.3,27.376,10.366c-6.671-10.346-19.4-17.416-38.043-21.031l-4.494-.9c-6.2-1.218-12.4-2.057-17.439-3.256a6.708,6.708,0,0,0-.459,2.437C204.522,62.607,218.8,63.406,233.087,66.2Z" fill="#00f7ef"/>
    <path id="Path_71" data-name="Path 71" d="M162.773,130.615l8.44-14.061a9.982,9.982,0,0,1,13.3-3.645A75.832,75.832,0,0,0,222,122.526c10.188,0,17.678-2.8,17.678-9.687,0-4.713-3.655-6.92-10.906-8.7-1.319,5.453-8.28,7.72-17.429,7.72a75.8,75.8,0,0,1-37.484-9.617,9.991,9.991,0,0,0-13.3,3.645l-8.44,14.061a9.96,9.96,0,0,0,3.856,13.951c1.747.908,3.545,1.757,5.4,2.566A9.906,9.906,0,0,1,162.773,130.615Z" fill="#00f7ef"/>
    <path id="Path_72" data-name="Path 72" d="M163.472,56.216c.7-26.764,23.172-44.639,56.73-44.639,14.443,0,27.776,1.2,44.7,8a10,10,0,0,0-5.922-8.658C239.728,2.329,225.3.911,209.535.911c-33.558,0-56.03,17.876-56.73,44.639-.429,15.379,4.565,26.554,16.121,34.144C164.941,73.323,163.213,65.544,163.472,56.216Z" fill="#00f7ef"/>
    <path id="Path_73" data-name="Path 73" d="M270.47,97.39a35.861,35.861,0,0,0-5.513-19.913q-10.4-7.055-27.376-10.366l-4.494-.9c-14.283-2.8-28.565-3.6-28.565-11.484a6.708,6.708,0,0,1,.459-2.437c-6.552-1.568-11.126-3.765-11.126-8.229,0-6.292,7.79-9.088,17.978-9.088a76.469,76.469,0,0,1,31.99,7.38,9.97,9.97,0,0,0,12.964-4.424l6.972-13.212a9.915,9.915,0,0,0,1.138-5.133c-16.929-6.8-30.252-8-44.7-8-33.558,0-56.031,17.876-56.73,44.639-.259,9.327,1.469,17.107,5.454,23.478,7.051,4.634,16.539,7.919,28.734,10.006l5.294.9c17.378,3,26.068,4.294,26.068,11.585a8.274,8.274,0,0,1-.25,1.967c7.261,1.778,10.906,3.985,10.906,8.7,0,6.891-7.49,9.687-17.678,9.687a75.8,75.8,0,0,1-37.484-9.617,9.991,9.991,0,0,0-13.3,3.645l-8.44,14.061a9.978,9.978,0,0,0-1.408,5.852c14.1,6.152,31.172,9.347,49.469,9.347C240.607,145.824,270.47,132.742,270.47,97.39Z"/>
    <path id="Path_74" data-name="Path 74" d="M208.507,178.02h17.3v-.679a9.991,9.991,0,0,0-9.988-9.986H197.84a9.991,9.991,0,0,0-9.988,9.986V297.189a9.991,9.991,0,0,0,9.988,9.986h.679V188.007A9.985,9.985,0,0,1,208.507,178.02Z" fill="#00f7ef"/>
    <path id="Path_75" data-name="Path 75" d="M225.806,297.189V178.021h-17.3a9.99,9.99,0,0,0-9.988,9.986V307.175h17.3A9.985,9.985,0,0,0,225.806,297.189Z"/>
    <path id="Path_76" data-name="Path 76" d="M93.329,282.788c14.682,0,23.87-8.288,23.87-24.367v-71.7a9.991,9.991,0,0,1,9.988-9.987h17.4v-.679a9.99,9.99,0,0,0-9.987-9.986H116.52a9.991,9.991,0,0,0-9.988,9.986v71.7c0,16.078-9.188,24.367-23.87,24.367a28.812,28.812,0,0,1-11.086-2.017C75.091,278.484,82.782,282.788,93.329,282.788Z" fill="#00f7ef"/>
    <path id="Path_77" data-name="Path 77" d="M31.405,186.709a9.991,9.991,0,0,1,9.988-9.987h17.4v-.679a9.991,9.991,0,0,0-9.988-9.986H30.726a9.991,9.991,0,0,0-9.988,9.986v72.811c0,21.98,7.281,38.448,21.154,48.444-6.921-9.666-10.5-22.369-10.5-37.788v-72.8Z" fill="#00f7ef"/>
    <path id="Path_78" data-name="Path 78" d="M144.6,248.854V176.722H127.2a9.99,9.99,0,0,0-9.987,9.987v71.7c0,16.078-9.189,24.367-23.871,24.367-10.557,0-18.247-4.3-21.753-12.683C63.526,266.75,58.8,259.26,58.8,247.746V176.722H41.393a9.991,9.991,0,0,0-9.988,9.987V259.52c0,15.409,3.576,28.122,10.5,37.788,10.147,7.311,23.811,11.175,40.77,11.175C122.823,308.473,144.6,286.9,144.6,248.854Z"/>
  </g>
</svg>
