<svg id="Group_45" data-name="Group 45" xmlns="http://www.w3.org/2000/svg" width="1066.102" height="824.2" viewBox="0 0 1066.102 824.2">
  <path id="Path_713" data-name="Path 713" d="M962.551,394.71l-15.879,71.42-12.89,57.94-10.274,46.21-12.882,57.94L868.531,817.51,346.914,576.48l-38.342-17.72-48.533-22.43-38.356-17.72-46.132-21.32L201.7,459.24l21.748-31.64,27.513-40.03,21.742-31.62L517.369,0,776.55,229.8,822.7,270.72l36.8,32.63,46.161,40.92Z" fill="#f2f2f2"/>
  <path id="Path_714" data-name="Path 714" d="M271.3,642.731c-34.88-19.444-56.594-45.991-64.539-78.9-5.9-24.436-4.2-51.933,5.038-81.728a218.889,218.889,0,0,1,30.439-61.484c70.638-99.986,77.014-165.138,69.923-202.187-7.774-40.623-33.031-57.494-33.286-57.66l1.09-1.677c.261.169,26.184,17.433,34.145,58.88,4.589,23.895,2.43,51.141-6.417,80.981-11.012,37.138-32.484,78.459-63.821,122.816a216.906,216.906,0,0,0-30.163,60.922c-15.158,48.867-17.3,116,58.564,158.292Z" transform="translate(-66.947 -37.9)" fill="#2f2e41"/>
  <path id="Path_715" data-name="Path 715" d="M288.074,642.731c34.88-19.444,56.594-45.991,64.539-78.9,5.9-24.436,4.2-51.933-5.038-81.728a218.888,218.888,0,0,0-30.439-61.484C246.5,320.631,240.122,255.479,247.213,218.43c7.774-40.623,33.031-57.494,33.286-57.66l-1.09-1.677c-.261.169-26.184,17.433-34.145,58.88-4.589,23.895-2.43,51.141,6.417,80.981,11.012,37.138,32.484,78.459,63.821,122.816a216.9,216.9,0,0,1,30.163,60.922c15.158,48.867,17.3,116-58.564,158.292Z" transform="translate(-66.947 -37.9)" fill="#2f2e41"/>
  <path id="Path_716" data-name="Path 716" d="M1048.3,558.731c-34.88-19.444-56.593-45.991-64.538-78.9-5.9-24.436-4.2-51.933,5.038-81.728a218.891,218.891,0,0,1,30.439-61.484c70.638-99.986,77.014-165.138,69.923-202.187-7.774-40.623-33.031-57.494-33.286-57.66l1.09-1.677c.261.169,26.184,17.433,34.145,58.88,4.589,23.895,2.43,51.141-6.417,80.981-11.012,37.138-32.484,78.459-63.821,122.816a216.907,216.907,0,0,0-30.163,60.922c-15.158,48.867-17.3,116,58.564,158.292Z" transform="translate(-66.947 -37.9)" fill="#2f2e41"/>
  <path id="Path_717" data-name="Path 717" d="M1065.07,558.731c34.88-19.444,56.594-45.991,64.539-78.9,5.9-24.436,4.2-51.933-5.038-81.728a218.889,218.889,0,0,0-30.439-61.484c-70.638-99.986-77.014-165.138-69.923-202.187,7.774-40.623,33.031-57.494,33.286-57.66l-1.09-1.677c-.261.169-26.184,17.433-34.145,58.88-4.589,23.895-2.43,51.141,6.417,80.981,11.012,37.138,32.484,78.459,63.821,122.816a216.905,216.905,0,0,1,30.163,60.922c15.158,48.867,17.3,116-58.564,158.292Z" transform="translate(-66.947 -37.9)" fill="#2f2e41"/>
  <path id="Path_718" data-name="Path 718" d="M534.762,337.845c-26.207-44.281-78.055-46.345-78.055-46.345s-50.523-6.461-82.933,60.98c-30.209,62.861-71.9,123.554-6.712,138.269L378.836,454.1l7.292,39.378a255.063,255.063,0,0,0,27.892.477c69.812-2.254,136.3.659,134.157-24.392C545.332,436.26,559.978,380.453,534.762,337.845Z" transform="translate(-66.947 -37.9)" fill="#2f2e41"/>
  <path id="Path_719" data-name="Path 719" d="M427.194,430.522c9.03,19.975,14.725,43.786,18.125,70.233l72.5-4.531c-16.668-23.619-22.2-50.728-15.859-81.561Z" transform="translate(-66.947 -37.9)" fill="#ffb8b8"/>
  <path id="Path_720" data-name="Path 720" d="M427.194,430.522c9.03,19.975,14.725,43.786,18.125,70.233l72.5-4.531c-16.668-23.619-22.2-50.728-15.859-81.561Z" transform="translate(-66.947 -37.9)" opacity="0.2"/>
  <path id="Path_721" data-name="Path 721" d="M90.819,810.844S53.3,830.943,72.337,848.1s44.193-22.714,44.193-22.714Z" transform="translate(-66.947 -37.9)" fill="#ffb8b8"/>
  <path id="Path_722" data-name="Path 722" d="M482.591,714.334l-.586,27.458-1.251,59.33v.01l-.364,17.182H240.438l9.752-54.151.01-.04,8.732-48.467,3.9-21.705v-.01l197.108-27.186Z" fill="#2f2e41"/>
  <path id="Path_723" data-name="Path 723" d="M549.537,752.237l-.589,27.459c-69.735-1.79-177.827-18.623-223.071-26.145l3.9-21.7,197.107-27.187Z" transform="translate(-66.947 -37.9)" fill="#3f3d56"/>
  <circle id="Ellipse_36" data-name="Ellipse 36" cx="56.64" cy="56.64" r="56.64" transform="translate(338.724 298.6)" fill="#ffb8b8"/>
  <path id="Path_724" data-name="Path 724" d="M571.06,782.823s6.8,61.171-33.984,56.64l-6.8-61.171-36.25-36.25-101.952-2.266L317.313,810.01s-2.266-72.5,6.8-79.3,29.453-22.656,29.453-22.656V696.73L292.391,572.122s36.25-74.765,65.7-77.03l38.515-2.266s13.594-6.8,13.594-9.062-2.266-20.39,9.062-15.859c0,0,1.019-23.245,12.959-16.154,0,0,37.586,29.453,75.739,1.291,0,0,17.785-3.262,15.519,5.8s0,15.859,4.531,15.859,24.922,6.8,24.922,11.328c0,.974,1.473,10.354,3.783,24.468v.023c8.406,51.452,27.935,165.819,27.935,165.819S605.044,705.792,571.06,782.823Z" transform="translate(-66.947 -37.9)" fill="#2f2e41"/>
  <path id="Path_725" data-name="Path 725" d="M308.25,560.794l-15.859,11.328-145,185.779-77.03,61.171s43.046-6.8,33.984,29.453L369.422,696.73Z" transform="translate(-66.947 -37.9)" fill="#2f2e41"/>
  <path id="Path_726" data-name="Path 726" d="M556.718,510.5v.023c-3.013,17.717-101.2,14.024-114.8,14.024S417,522.279,403.4,513.217s-6.8-20.39-6.8-20.39,11.575-8.816,11.575-11.081-2.266-20.39,9.062-15.859c0,0,1.019-23.245,12.959-16.154,0,0,39.605,31.472,77.758,3.31,0,0,17.785-3.262,15.519,5.8s0,15.859,4.531,15.859,24.922,6.8,24.922,11.328C552.935,487,554.408,496.383,556.718,510.5Z" transform="translate(-66.947 -37.9)" fill="#3f3d56"/>
  <path id="Path_727" data-name="Path 727" d="M545.005,425.991s-18.125-38.515-36.25-20.39,20.39,45.312,20.39,45.312Z" transform="translate(-66.947 -37.9)" fill="#ffb8b8"/>
  <path id="Path_728" data-name="Path 728" d="M545.005,416.929S517.017,452.3,508.355,455c0,0,25.322,100.126,57.04,127.313l18.125,92.89s77.03-31.718,58.906-83.827l-.541-1.554a513.989,513.989,0,0,0-62.1-122.408Z" transform="translate(-66.947 -37.9)" fill="#2f2e41"/>
  <path id="Path_729" data-name="Path 729" d="M463.1,483.933l55.737,153.374-20.39-92.89Z" opacity="0.2"/>
  <path id="Path_730" data-name="Path 730" d="M456.229,295.676l-51.224-26.831-70.737,10.976L319.632,344.46l36.432-1.4,10.178-23.748v23.357l16.81-.647,9.757-37.808,6.1,40.247,59.761-1.219Z" fill="#2f2e41"/>
  <path id="Path_731" data-name="Path 731" d="M1007.08,682.238l29.06,103.671s-5.989,91.827,21.959,73.861c28.6-18.386,17.966-95.819,17.966-95.819l-16.755-93.006Z" transform="translate(-66.947 -37.9)" fill="#a0616a"/>
  <path id="Path_732" data-name="Path 732" d="M1022.61,391.415l24,24V529.768s14.118,21.176,11.294,26.823-5.647,5.647-2.823,9.882,5.647,7.059,2.823,9.882-2.823,9.882,0,12.706,8.471,7.059,4.235,11.294-9.882,1.412-4.235,16.941,15.529,19.765,12.706,25.412-2.823,19.765-2.823,19.765l-60.706,8.471L994.37,511.415Z" transform="translate(-66.947 -37.9)" fill="#2f2e41"/>
  <path id="Path_733" data-name="Path 733" d="M1003.66,623.161l-70.59,2.824,2.823,29.647,62.118-11.294Z" fill="#3f3d56"/>
  <path id="Path_734" data-name="Path 734" d="M809.541,205.986l-8.471,84.705L887.188,303.4l6.353-48.705,6.353-48.706Z" fill="#a0616a"/>
  <path id="Path_735" data-name="Path 735" d="M809.541,205.527l-8.471,84.706,86.118,12.706,6.353-48.706,6.353-48.706Z" opacity="0.1"/>
  <path id="Path_736" data-name="Path 736" d="M689.43,646.944,737.43,750s8.471,48,21.176,49.412S784.018,750,784.018,750L767.077,723.18l-19.765-76.235Z" transform="translate(-66.947 -37.9)" fill="#a0616a"/>
  <path id="Path_737" data-name="Path 737" d="M1018,857.214H746.635c2.15-34.011,3.5-54.978,3.5-54.978l3.6-5.673L771.217,769.1,783.694,749.5l4.351-6.845,1.615-2.534L806.751,737l176.323-32.173A215.422,215.422,0,0,0,995.4,742.936c1.2,2.736,2.493,5.471,3.877,8.177,4.432,8.652,9.843,16.849,16.273,22.886,1.464,1.373,2.524,5.037,3.21,10.671C1020.46,798.47,1019.97,824.132,1018,857.214Z" transform="translate(-66.947 -37.9)" fill="#2f2e41"/>
  <circle id="Ellipse_37" data-name="Ellipse 37" cx="67.765" cy="67.765" r="67.765" transform="translate(789.07 97.986)" fill="#a0616a"/>
  <path id="Path_738" data-name="Path 738" d="M772.724,342l-9.882-5.647s-43.765,29.647-57.882,96-24,83.294-24,83.294-14.118,2.824-4.235,12.706,9.882,8.471,1.412,14.118-14.118-5.647-8.471,5.647,12.706,8.471,7.059,15.529-15.529,7.059-9.882,12.706-5.647,18.353,1.412,24,9.882,7.059,9.882,16.941a49.992,49.992,0,0,0,2.824,16.941h73.412s-14.118-26.823-9.882-32.471,5.647-11.294,2.824-14.118-11.294,2.824-2.824-4.235,11.294-2.824,8.471-11.294-8.471-4.235-2.824-8.471,9.882-2.824,7.059-7.059-8.471-4.235-2.824-7.059,9.882,0,8.471-7.059-2.824-4.235,0-7.059,32.471-98.823,32.471-101.647S772.724,342,772.724,342Z" transform="translate(-66.947 -37.9)" fill="#2f2e41"/>
  <path id="Path_739" data-name="Path 739" d="M691.659,590.691l-88.941,5.647,22.588,21.176,62.118,1.412Z" fill="#3f3d56"/>
  <path id="Path_740" data-name="Path 740" d="M784.018,734.473l-18.353,33.882s55.059,7.059,74.823,14.118,70.588,16.941,70.588,16.941L923.782,750Z" transform="translate(-66.947 -37.9)" fill="#3f3d56"/>
  <path id="Path_741" data-name="Path 741" d="M878.011,712.1l15.53,46.588,62.117-12.706L948.6,702.22Z" fill="#3f3d56"/>
  <path id="Path_742" data-name="Path 742" d="M970.37,294s-4.235-2.824-14.118,2.824S913.9,305.3,898.37,288.356s-26.823-31.059-31.059-28.235-7.059,35.294-7.059,35.294l-14.118,11.294-83.294,29.647L769.9,526.944l12.706,43.765s-9.882,33.882,2.824,53.647-7.059,26.823-7.059,26.823-4.235,5.647-1.412,19.765-2.824,66.353-2.824,66.353,120,53.647,245.646,7.059l-14.118-53.647-7.059-120s7.059-19.765,5.647-28.235S1046.6,415.415,1046.6,415.415s-7.059-59.294-43.765-72S960.487,318,960.487,318,977.429,299.65,970.37,294Z" transform="translate(-66.947 -37.9)" fill="#2f2e41"/>
  <path id="Path_743" data-name="Path 743" d="M855.548,212.331s-7.037-10.555-4.33-21.923a66.444,66.444,0,0,0,1.895-19.758s5.684-18.4,11.367-28.689,2.977-14.615,20.84-17.863,10.555-26.524,57.649-1.353a13.811,13.811,0,0,0,14.345,5.413c9.743-1.895,13.262,11.638,13.262,11.638s6.5-3.789,8.932,1.624,19.8-3.249,19.8,33.289-19.765,69.176-19.765,69.176S981,182.424,948.788,176.2s-66.851-24.359-75.242-1.083S855.548,212.331,855.548,212.331Z" transform="translate(-66.947 -37.9)" fill="#2f2e41"/>
  <ellipse id="Ellipse_38" data-name="Ellipse 38" cx="6.353" cy="8.471" rx="6.353" ry="8.471" transform="translate(906.952 172.103)" fill="#a0616a"/>
</svg>
