<svg id="Special_Angkatan_Illustration_1" data-name="Special Angkatan Illustration 1" xmlns="http://www.w3.org/2000/svg" width="300.003" height="192.223" viewBox="0 0 300.003 192.223">
  <rect id="Rectangle_120" data-name="Rectangle 120" width="299.875" height="192.053" transform="translate(0.128 0.17)" fill="#e6e6e6"/>
  <rect id="Rectangle_121" data-name="Rectangle 121" width="282.725" height="156.603" transform="translate(8.703 24.258)" fill="#fff"/>
  <rect id="Rectangle_122" data-name="Rectangle 122" width="299.875" height="12.74" fill="#00f7ef"/>
  <circle id="Ellipse_8" data-name="Ellipse 8" cx="2.361" cy="2.361" r="2.361" transform="translate(7.106 4.152)" fill="#fff"/>
  <circle id="Ellipse_9" data-name="Ellipse 9" cx="2.361" cy="2.361" r="2.361" transform="translate(16.069 4.152)" fill="#fff"/>
  <circle id="Ellipse_10" data-name="Ellipse 10" cx="2.361" cy="2.361" r="2.361" transform="translate(25.031 4.152)" fill="#fff"/>
  <rect id="Rectangle_123" data-name="Rectangle 123" width="55.297" height="59.992" transform="translate(43.489 37.139)" fill="#e6e6e6"/>
  <rect id="Rectangle_124" data-name="Rectangle 124" width="55.297" height="59.992" transform="translate(122.416 37.139)" fill="#e6e6e6"/>
  <rect id="Rectangle_125" data-name="Rectangle 125" width="55.297" height="59.992" transform="translate(201.343 37.139)" fill="#e6e6e6"/>
  <rect id="Rectangle_126" data-name="Rectangle 126" width="55.297" height="59.992" transform="translate(43.489 107.99)" fill="#e6e6e6"/>
  <rect id="Rectangle_127" data-name="Rectangle 127" width="55.297" height="59.992" transform="translate(122.416 107.99)" fill="#e6e6e6"/>
  <rect id="Rectangle_128" data-name="Rectangle 128" width="55.297" height="59.992" transform="translate(201.343 107.99)" fill="#e6e6e6"/>
  <circle id="Ellipse_11" data-name="Ellipse 11" cx="9.347" cy="9.347" r="9.347" transform="translate(55.621 54.72)" fill="#ffb9b9"/>
  <path id="Path_419" data-name="Path 419" d="M358.421,377.168s1.168,5.55,1.168,6.134,5.55,3.213,5.55,3.213l4.966-.876,1.753-5.258s-2.921-4.382-2.921-6.134Z" transform="translate(-297.104 -305.945)" fill="#ffb9b9"/>
  <path id="Path_420" data-name="Path 420" d="M342.5,333.284s2.968-6.43,8.656-4.946,8.9,3.71,9.151,5.935a31.753,31.753,0,0,1-.124,5.565s-.618-4.575-4.575-3.586-10.14.247-10.14.247l-.989,8.9s-1.113-1.608-2.349-.618S338.539,335.263,342.5,333.284Z" transform="translate(-285.634 -276.748)" fill="#2f2e41"/>
  <path id="Path_421" data-name="Path 421" d="M365.339,408.715,363,398.2a19.125,19.125,0,0,0-4.09-6.424l-14.405-5.066h0a6.049,6.049,0,0,1-4.284,5.653c-4.383,1.457-7.4-3.454-7.4-3.454L320.644,398.2a11.879,11.879,0,0,0-3.5,9.35l-.4,3.414h49.724Z" transform="translate(-270.723 -313.831)" fill="#00f7ef"/>
  <ellipse id="Ellipse_12" data-name="Ellipse 12" cx="12.687" cy="13.468" rx="12.687" ry="13.468" transform="translate(130.997 51.136)" fill="#2f2e41"/>
  <circle id="Ellipse_13" data-name="Ellipse 13" cx="6.674" cy="6.674" r="6.674" transform="translate(148.267 71.636)" fill="#2f2e41"/>
  <path id="Path_422" data-name="Path 422" d="M393.785,188.971l3.576,9.3-9.058,3.814-.8-1.8-2.78-6.3Z" transform="translate(-243.492 -119.599)" fill="#9f616a"/>
  <circle id="Ellipse_14" data-name="Ellipse 14" cx="7.985" cy="7.985" r="7.985" transform="translate(135.156 59.479)" fill="#9f616a"/>
  <path id="Path_423" data-name="Path 423" d="M559.658,350.186c5.019-3.349,6.519-4.15,12.272-2.856l.345-8.393-14.867,3.119Z" transform="translate(-423.043 -283.597)" fill="#2f2e41"/>
  <path id="Path_424" data-name="Path 424" d="M589.325,406.428l-.22.026a.142.142,0,0,0-.018-.022c-.874-.874-5.044-2.463-8.153-3.565h0c-1.975-.7-3.521-1.2-3.521-1.2L573.65,397.8c-.947,1.065-2.948,1.887-4.849,2.467a38.07,38.07,0,0,1-4.435,1.057h0l-.778,2.485s-8.821,6.678-9.534,7.39h0v.007a.387.387,0,0,0-.066.279v.018a32.367,32.367,0,0,0-.683,6.479h38.414v-2.254C591.712,412.628,589.325,406.428,589.325,406.428Z" transform="translate(-420.441 -320.849)" fill="#575a89"/>
  <path id="Path_425" data-name="Path 425" d="M798.6,379.061H779.606l-1.046-10.319-.062-.628-.129-1.245-.525-5.2-.657,5.587L775.8,379.061h-3.451l.129-3.675.128-3.726.055-1.5.709-20.426a14.585,14.585,0,0,1,2.911-8.99,11.359,11.359,0,0,1,9.174-4.438,11.688,11.688,0,0,1,9.332,4.6,14.779,14.779,0,0,1,3.051,9.126l.327,12.364Z" transform="translate(-559.077 -281.93)" fill="#2f2e41"/>
  <circle id="Ellipse_15" data-name="Ellipse 15" cx="8.355" cy="8.355" r="8.355" transform="translate(218.022 58.403)" fill="#fbbebe"/>
  <path id="Path_426" data-name="Path 426" d="M791.525,385.266s2.387,8.056,0,10.443a27.647,27.647,0,0,0-2.984,3.282l6.863,9.25,11.935-14.62s-8.354-2.387-6.266-8.951Z" transform="translate(-569.326 -312.541)" fill="#fbbebe"/>
  <path id="Path_427" data-name="Path 427" d="M662.947,259.036H655.9l-.117-1.208-.107-1.116,3.245-.407,3.913-.488.044,1.252Z" transform="translate(-414.975 -161.906)" fill="#fbbebe"/>
  <path id="Path_428" data-name="Path 428" d="M801.381,422.011s-1.194-7.459-2.089-10.443-1.79-2.984-1.79-2.984h0c-1.054-1.054-3.587-1.241-5.492-1.211-1.336.015-2.364.132-2.364.132L779,418.73l-5.36-7.125v0a7.8,7.8,0,0,0-1.428.246,9.461,9.461,0,0,0-1.182.385,16.218,16.218,0,0,0-4.526,2.9h0c-.771.694-1.226,1.2-1.226,1.2a34.939,34.939,0,0,0-2.65,7.7h34.1l.077-1.535v0Z" transform="translate(-552.925 -326.908)" fill="#00f7ef"/>
  <path id="Path_429" data-name="Path 429" d="M785.347,353.521c5.4-2.909,7.612-2.786,14.322,0l1.79-4.362a3.1,3.1,0,0,0-3.1-3.1H786.356a3.1,3.1,0,0,0-3.1,3.1Z" transform="translate(-565.982 -288.106)" fill="#2f2e41"/>
  <path id="Path_430" data-name="Path 430" d="M369.064,521.9a2.2,2.2,0,0,0-1.276.285,3.329,3.329,0,0,0-.863,1.14,13.634,13.634,0,0,1-3.714,4.195c-1.1.808-2.506,1.816-2.318,3.307a4.47,4.47,0,0,0,.538,1.4c1.018,2.055,3.8,3.643,3.523,5.988,1.011-1.693-.341-2.53.67-4.223.482-.806,1.318-1.716,2.045-1.21.243.17.4.474.657.622.6.355,1.248-.324,1.784-.8,1.846-1.657,4.472-1.223,6.77-.707a4.234,4.234,0,0,1,2.917,1.6c.843,1.363-.8,2.835-1.216,4.377a.84.84,0,0,0,.9,1.045c.689-.068,1.506-.124,1.547-.426.867.031,1.93-.067,2.3-.971a3.8,3.8,0,0,0,.178-1.1,22.717,22.717,0,0,1,1.207-4.345,5.87,5.87,0,0,0-.108-4.417,5.112,5.112,0,0,0-.943-1.146C379.58,522.544,374.208,521.892,369.064,521.9Z" transform="translate(-298.658 -399.388)" fill="#2f2e41"/>
  <path id="Path_431" data-name="Path 431" d="M368.692,571.975s.888,7.4-2.369,8,2.962,10.662,2.962,10.662l14.808,1.777-3.554-11.847s-2.369-.888-.888-6.812S368.692,571.975,368.692,571.975Z" transform="translate(-301.507 -430.193)" fill="#9f616a"/>
  <circle id="Ellipse_16" data-name="Ellipse 16" cx="8.885" cy="8.885" r="8.885" transform="translate(64.963 128.899)" fill="#9f616a"/>
  <path id="Path_432" data-name="Path 432" d="M350.9,616.348c1.571-6.178,3.741-14.5,3.741-14.5s.844.173,2.173.367a51.431,51.431,0,0,0,5.859.532,21.315,21.315,0,0,0,7.2-.8A6.739,6.739,0,0,0,372,600.809a4.1,4.1,0,0,0,.712-.738c3.553-4.739,5.033,13.326,5.033,13.326l.275,2.952Z" transform="translate(-292.343 -448.366)" fill="#00f7ef"/>
  <path id="Path_433" data-name="Path 433" d="M427.62,697.252q-.176,0-.352.011l.169-.316C427.5,697.046,427.554,697.149,427.62,697.252Z" transform="translate(-340.677 -510.18)" fill="#ffb8b8"/>
  <path id="Path_434" data-name="Path 434" d="M372.868,528.234a2.016,2.016,0,0,0-1.039.2,2.422,2.422,0,0,0-.7.806,10.233,10.233,0,0,1-3.023,2.965c-.9.571-2.04,1.284-1.887,2.337a2.924,2.924,0,0,0,.438.987,7.76,7.76,0,0,1,.943,4.837l2.47-3.59c.392-.57,1.073-1.213,1.665-.855.2.12.328.335.535.44.492.251,1.016-.229,1.452-.568,1.5-1.172,3.641-.865,5.511-.5a3.61,3.61,0,0,1,2.375,1.131c.867,1.218-.038,2.977.468,4.384a1.292,1.292,0,0,0,.535-.853c.706.022,1.571-.048,1.874-.686a2.365,2.365,0,0,0,.145-.781,14.436,14.436,0,0,1,.982-3.071,3.647,3.647,0,0,0-.088-3.122,3.778,3.778,0,0,0-.768-.81C381.428,528.69,377.056,528.229,372.868,528.234Z" transform="translate(-302.029 -403.399)" fill="#2f2e41"/>
  <path id="Path_435" data-name="Path 435" d="M340.885,595.539a20.633,20.633,0,0,1-3.286-5.844v0s-3.231-1.85-4.119-.073-9.181,6.219-10.07,6.219l-.022.007c-.352.117-4.765,1.722-5.9,7.694a44.7,44.7,0,0,0-.492,6.208H341.15c.25-2.617.437-5.066.51-7.18a19.774,19.774,0,0,0-.444-6.421A1.869,1.869,0,0,0,340.885,595.539Z" transform="translate(-270.888 -441.764)" fill="#2f2e41"/>
  <path id="Path_436" data-name="Path 436" d="M415.6,599.662c-.015-.07-.026-.128-.037-.184a1.363,1.363,0,0,0-.2-.441.029.029,0,0,1,0-.011c-1.711-2.651-12.713-6.3-12.713-6.3l-.411,1.421s.051,1.4.125,3.649c.073,2.1.162,4.945.246,8.065.059,2.037.11,4.2.158,6.34h16.457A96.112,96.112,0,0,0,415.6,599.662Z" transform="translate(-324.836 -444.22)" fill="#2f2e41"/>
  <path id="Path_437" data-name="Path 437" d="M858.078,634.315l1.259-6.153,1.171-.5.007,0a2.586,2.586,0,0,1,1.38,2.625c0,.411-.062,1.891-.165,4.02Z" transform="translate(-613.335 -466.333)" fill="#575a89"/>
  <circle id="Ellipse_17" data-name="Ellipse 17" cx="10.226" cy="10.226" r="10.226" transform="translate(221.291 126.04)" fill="#ffb8b8"/>
  <path id="Path_438" data-name="Path 438" d="M623.827,387.44l-.852,17.469-13.208-7.669,1.7-9.8Z" transform="translate(-385.919 -245.209)" fill="#ffb8b8"/>
  <path id="Path_439" data-name="Path 439" d="M626.68,416.6l-.866,7.43h-6.935l-7.526-14.46-2.122-4.071-1.017-.664,1.178-.268.929.672,10.393,7.529,1.667-5,.044-.129.419-1.259Z" transform="translate(-384.937 -256.049)" fill="#00f7ef"/>
  <path id="Path_440" data-name="Path 440" d="M797.066,523s1.278-6.391,8.522-5.113l-.852.426s6.817-.852,5.965,2.983c0,0,5.539,3.409,4.261,7.243a43.35,43.35,0,0,0-1.7,6.817l-1.278-1.278s-1.278-8.522-8.948-7.669c-5.752.639-8.1,3.355-8.695,5.313a17.3,17.3,0,0,1-1.053,2.678l-.479.1S790.248,525.129,797.066,523Z" transform="translate(-571.727 -396.746)" fill="#2f2e41"/>
  <path id="Path_441" data-name="Path 441" d="M794.5,602.874l-.007,0-5.429-5.044v-3.407l-4.192-3.3-.062,2.008-.433,13.653-6.971-9.589-4.7-6.461-.844-1.156.205-1.083-2.6,2.948-9.42,7.067-.808.606a25.687,25.687,0,0,0-2.555,2.981c-.253.378-1.406,3.388-2.907,7.43H795.72c.1-2.129.165-3.609.165-4.02A2.586,2.586,0,0,0,794.5,602.874Z" transform="translate(-547.324 -441.536)" fill="#2f2e41"/>
  <path id="Path_442" data-name="Path 442" d="M576.249,528.783h0c-6.93,0-12.547,6.234-12.547,13.924v9.77h3.005l1.74-3.62-.435,3.62h19.314l1.582-3.291-.4,3.291h2.175v-7.672C590.687,535.957,584.223,528.783,576.249,528.783Z" transform="translate(-427.026 -403.75)" fill="#2f2e41"/>
  <path id="Path_443" data-name="Path 443" d="M556.089,630.72h-8.161l-.077-6.656c0-.07,0-.136,0-.205l1.634-1.839.029-.033,6.237,3.95Z" transform="translate(-416.992 -462.738)" fill="#d0cde1"/>
  <circle id="Ellipse_18" data-name="Ellipse 18" cx="8.932" cy="8.932" r="8.932" transform="translate(139.181 129.498)" fill="#fbbebe"/>
  <path id="Path_444" data-name="Path 444" d="M580.907,576.18s2.62,13.577,1.429,15.006,12.624-2.62,12.624-2.62-4.525-9.289-2.144-14.529Z" transform="translate(-437.915 -432.391)" fill="#fbbebe"/>
  <path id="Path_445" data-name="Path 445" d="M584.084,599.29h0a2.05,2.05,0,0,0-1.024-1c-1.751-.738-3.26-1.3-4.5-1.733a9.517,9.517,0,0,0-6.733.209c-.209.084-.415.176-.617.279,0,0-8.733,1.663-9.772,1.454-.077-.015-.158-.026-.235-.033a4.114,4.114,0,0,0-.474-.04,10.463,10.463,0,0,0-5.8,1.439c-2.867,1.663-7.118,4.611-7.206,7.482l-.081.092.081,6.861h38.333c.077-6.575.121-11.516.121-11.85C586.173,601.411,584.084,599.29,584.084,599.29Z" transform="translate(-416.859 -446.319)" fill="#00f7ef"/>
  <path id="Path_446" data-name="Path 446" d="M583.394,534.663a6.58,6.58,0,0,0-5.192-2.649h-.246c-4.749,0-8.6,4.3-8.6,9.6h1.591l.257-1.956.377,1.956h9.439l.791-1.655-.2,1.655h1.857q1.3,6.455-3.735,12.909H582.9l1.582-3.31-.4,3.31h6.03l1.186-7.613C591.3,541.207,587.988,536.373,583.394,534.663Z" transform="translate(-430.605 -405.795)" fill="#2f2e41"/>
  <circle id="Ellipse_19" data-name="Ellipse 19" cx="4.699" cy="4.699" r="4.699" transform="translate(149.824 120.271)" fill="#2f2e41"/>
</svg>
