<svg xmlns="http://www.w3.org/2000/svg" width="299.997" height="256.836" viewBox="0 0 299.997 256.836">
  <g id="Special_Angkatan_Illustration_3" data-name="Special Angkatan Illustration 3" transform="translate(0)">
    <ellipse id="Ellipse_24" data-name="Ellipse 24" cx="31.489" cy="64.25" rx="31.489" ry="64.25" transform="translate(9.31 44.886)" fill="#00f7ef"/>
    <path id="Path_500" data-name="Path 500" d="M265.209,297.935c1.571-27.967,4.736-46.858,4.767-47.046l-.687-.116c-.032.188-3.2,19.109-4.775,47.113-1.452,25.846-1.8,64.939,4.775,104.4l.687-.114C263.41,362.776,263.76,323.743,265.209,297.935Z" transform="translate(-224.699 -188.133)" fill="#3f3d56"/>
    <rect id="Rectangle_130" data-name="Rectangle 130" width="32.292" height="0.697" transform="translate(40.472 111.344) rotate(-28.157)" fill="#3f3d56"/>
    <rect id="Rectangle_131" data-name="Rectangle 131" width="0.697" height="32.292" transform="translate(10.415 104.358) rotate(-61.858)" fill="#3f3d56"/>
    <ellipse id="Ellipse_25" data-name="Ellipse 25" cx="40.851" cy="83.353" rx="40.851" ry="83.353" transform="translate(218.294 0)" fill="#00f7ef"/>
    <path id="Path_501" data-name="Path 501" d="M925.453,192.026c2.038-36.289,6.145-60.8,6.186-61.044l-.651-.11c-.041.244-4.153,24.784-6.194,61.107-1.883,33.524-2.338,84.231,6.194,135.419l.651-.108C923.118,276.165,923.572,225.514,925.453,192.026Z" transform="translate(-666.804 -107.819)" fill="#3f3d56"/>
    <rect id="Rectangle_132" data-name="Rectangle 132" width="41.894" height="0.66" transform="translate(258.779 86.326) rotate(-28.157)" fill="#3f3d56"/>
    <rect id="Rectangle_133" data-name="Rectangle 133" width="0.66" height="41.894" transform="translate(219.785 77.048) rotate(-61.858)" fill="#3f3d56"/>
    <ellipse id="Ellipse_26" data-name="Ellipse 26" cx="15.263" cy="31.143" rx="15.263" ry="31.143" transform="translate(194.663 126.996)" fill="#e6e6e6"/>
    <path id="Path_502" data-name="Path 502" d="M751.465,495.582l.09.169,13.8-7.387-.311-.582-13.55,7.253a232.442,232.442,0,0,1,2.314-23.249l-.651-.11a241.254,241.254,0,0,0-2.5,27.121l-13.667-7.315-.312.582,13.8,7.386.165-.308a230.2,230.2,0,0,0,2.516,46.029l.651-.108C750.817,527.118,750.751,509.206,751.465,495.582Z" transform="translate(-541.552 -336.101)" fill="#3f3d56"/>
    <path id="Path_503" data-name="Path 503" d="M432.953,700.557c-81.3-25.736-155.016-24.365-202.542-18.683-51.49,6.156-84.162,18.552-84.486,18.676l-.237-.616c.325-.125,33.074-12.55,84.643-18.715a490.937,490.937,0,0,1,91.42-2.338,476.852,476.852,0,0,1,111.4,21.047Z" transform="translate(-145.688 -474.141)" fill="#3f3d56"/>
    <path id="Path_504" data-name="Path 504" d="M462.2,716.13s.228-4.777,4.9-4.222" transform="translate(-357.699 -496.987)" fill="#3f3d56"/>
    <circle id="Ellipse_27" data-name="Ellipse 27" cx="2.339" cy="2.339" r="2.339" transform="translate(100.841 209.918)" fill="#00f7ef"/>
    <rect id="Rectangle_134" data-name="Rectangle 134" width="0.66" height="4.622" transform="translate(102.8 216.197)" fill="#3f3d56"/>
    <path id="Path_505" data-name="Path 505" d="M720.2,719.13s.228-4.777,4.9-4.222" transform="translate(-530.516 -498.996)" fill="#3f3d56"/>
    <circle id="Ellipse_28" data-name="Ellipse 28" cx="2.339" cy="2.339" r="2.339" transform="translate(186.024 210.908)" fill="#00f7ef"/>
    <rect id="Rectangle_135" data-name="Rectangle 135" width="0.66" height="4.622" transform="translate(187.983 217.187)" fill="#3f3d56"/>
    <path id="Path_506" data-name="Path 506" d="M295.2,694.13s.228-4.777,4.9-4.222" transform="translate(-245.837 -482.25)" fill="#3f3d56"/>
    <circle id="Ellipse_29" data-name="Ellipse 29" cx="2.339" cy="2.339" r="2.339" transform="translate(45.704 202.654)" fill="#00f7ef"/>
    <rect id="Rectangle_136" data-name="Rectangle 136" width="0.66" height="4.622" transform="translate(47.662 208.933)" fill="#3f3d56"/>
    <path id="Path_507" data-name="Path 507" d="M404.2,675.13s.228-4.777,4.9-4.222" transform="translate(-318.848 -469.524)" fill="#3f3d56"/>
    <circle id="Ellipse_30" data-name="Ellipse 30" cx="2.339" cy="2.339" r="2.339" transform="translate(81.692 196.381)" fill="#00f7ef"/>
    <rect id="Rectangle_137" data-name="Rectangle 137" width="0.66" height="4.622" transform="translate(83.65 202.66)" fill="#3f3d56"/>
    <path id="Path_508" data-name="Path 508" d="M677.2,702.13s.228-4.777,4.9-4.222" transform="translate(-501.713 -487.609)" fill="#3f3d56"/>
    <circle id="Ellipse_31" data-name="Ellipse 31" cx="2.339" cy="2.339" r="2.339" transform="translate(171.827 205.296)" fill="#00f7ef"/>
    <rect id="Rectangle_138" data-name="Rectangle 138" width="0.66" height="4.622" transform="translate(173.786 211.575)" fill="#3f3d56"/>
    <path id="Path_509" data-name="Path 509" d="M966.64,681.78l13.589,20.149-12.652,12.652-1.64-3.28,2.812-6.56s-.469-6.092-2.109-7.732-8.9-11.48-8.9-11.48Z" transform="translate(-689.626 -476.836)" fill="#ffb8b8"/>
    <path id="Path_510" data-name="Path 510" d="M886.558,484.5s2.577,4.078-2.812,21.65c0,0,25.136,42.422,21.152,45.234s-14.761,9.034-17.573,7.159-23.26-65.374-23.26-65.374Z" transform="translate(-626.883 -344.694)" fill="#2f2e41"/>
    <path id="Path_511" data-name="Path 511" d="M977.667,731.808l4.1,4.1c2.109,2.109,3.515,5.154-.469,7.732s-17.807,12.183-22.493,9.138,5.623-5.857,5.623-5.857,1.7-6.32,2.609-4.917.905,4.214.905,4.214Z" transform="translate(-689.525 -510.346)" fill="#2f2e41"/>
    <path id="Path_512" data-name="Path 512" d="M815.086,710.854s-7.5,13.823-7.5,15.463.469,6.326.469,6.326l-14.292,3.514-4.92-2.343,1.64-4.217s8.9-3.046,10.778-8.9,3.983-11.949,3.983-11.949Z" transform="translate(-576.497 -494.899)" fill="#ffb8b8"/>
    <circle id="Ellipse_32" data-name="Ellipse 32" cx="9.84" cy="9.84" r="9.84" transform="translate(237.418 58.744)" fill="#ffb8b8"/>
    <path id="Path_513" data-name="Path 513" d="M886.774,287.669l4.7,13.5,10.3-4.6s-7.029-10.778-7.029-12.184Z" transform="translate(-642.093 -210.65)" fill="#ffb8b8"/>
    <path id="Path_514" data-name="Path 514" d="M848.024,439.8h12.417s8.9,13.589,3.749,27.881a74.093,74.093,0,0,0-2.355,8.879c-1.8,8.336-3.589,19.627-5.424,30-2.578,14.574-5.243,27.342-8.141,27.574-5.857.469-17.247.391-17.247-1.952s7.629-70.126,7.629-70.126l1.64-2.811L840.6,447a7.387,7.387,0,0,1,7.422-7.2Z" transform="translate(-604.749 -314.747)" fill="#2f2e41"/>
    <path id="Path_515" data-name="Path 515" d="M788.934,761.613s2.695,4.569,1.992,7.849-1.874,2.812-7.029,3.28-22.727.469-22.727-2.812,13.708-7.54,13.766-6.23.526,3.887-.879,4.356-.117.117-.117.117Z" transform="translate(-557.959 -530.311)" fill="#2f2e41"/>
    <path id="Path_516" data-name="Path 516" d="M865.93,523.874s-1.019,16.643-7.817,11.688,2.649-13.9,2.649-13.9Z" transform="translate(-621.247 -369.581)" fill="#fff"/>
    <path id="Path_517" data-name="Path 517" d="M878.719,354.615a1.974,1.974,0,0,0,2.02-.239,2.069,2.069,0,0,0,.766-1.305c.983-5.666,2.179-21.373,2.869-29.316a33.481,33.481,0,0,0-3.491-17.733l-2.546-3.5a2,2,0,0,0-2.393-.672s-7.947,8.246-7.977,8.564c-.125,1.367-1.071,4.4-6,9.327-5.395,5.395-5.424,10.1-5.305,11.417q.012.13.012.259a5.778,5.778,0,0,0,.238,1.743c2.259,7.123.49,15.652-2.352,24.554a2.008,2.008,0,0,0,.809,2.179c.83.565-.165-.273.131.09,1.958,2.4,4.777-.945,8-4.594,1.123-1.271,2.4-2.712,3.9-4.212,2.063-2.063,6,2.644,7.835,2.644A8.508,8.508,0,0,1,878.719,354.615Z" transform="translate(-620.469 -222.242)" fill="#575a89"/>
    <path id="Path_518" data-name="Path 518" d="M886.773,325.685s5.147,4.34,2.223,9.97-2.535,9.781-2.535,9.781-.779,38.671-9.915,36.792L872.39,393.7l-7.506-2.709,4.34-10.12s-3.476-.216-2.461-2.585c.713-1.664,4.557-19.717,6.782-30.316.943-4.492,1.595-7.645,1.595-7.645S878.1,324.514,886.773,325.685Z" transform="translate(-627.43 -238.27)" fill="#575a89"/>
    <path id="Path_519" data-name="Path 519" d="M782.892,321.612,780,340.6l1.561-20.3Z" transform="translate(-522.47 -214.546)" opacity="0.2"/>
    <path id="Path_520" data-name="Path 520" d="M861.932,236.292s-1.654-12.875,11.844-8.653c0,0,9.641-1.769,12.8,10.29l3.2,12.641-1.56-.849-.727,1.59-2.528.64-1.082-2.147-.523,2.608-20.707,2.064s9.274-5.485,9.421-15.315l-1.766,1.867Z" transform="translate(-625.41 -172.068)" fill="#2f2e41"/>
    <path id="Path_521" data-name="Path 521" d="M763.014,520.78l4.617-30.767-3.755,33.214Z" transform="translate(-511.093 -328.227)" opacity="0.2"/>
    <circle id="Ellipse_33" data-name="Ellipse 33" cx="5.207" cy="5.207" r="5.207" transform="translate(254.26 50.491)" fill="#2f2e41"/>
    <path id="Path_522" data-name="Path 522" d="M913.968,215.914a5.2,5.2,0,0,1,5.2-4.867c-.107-.014-.214-.03-.324-.037a5.207,5.207,0,0,0-.668,10.392c.11.007.217,0,.326,0A5.2,5.2,0,0,1,913.968,215.914Z" transform="translate(-659.866 -161.491)" fill="#2f2e41"/>
    <path id="Path_523" data-name="Path 523" d="M731.571,337l-4.581,24.553,5.938-27.119Z" transform="translate(-486.963 -224.013)" opacity="0.2"/>
    <path id="Path_524" data-name="Path 524" d="M870.719,275.859l-2.67,2.013c-2.75-1.384-4.812-4.585-5.562-7.641l2.91-1.468C865.625,271.88,867.837,273.952,870.719,275.859Z" transform="translate(-625.825 -200.183)" fill="#fff"/>
    <path id="Path_525" data-name="Path 525" d="M876.83,269.206h-6.653a.222.222,0,0,1,0-.444h6.653a.222.222,0,1,1,0,.444Z" transform="translate(-630.827 -200.183)" fill="#fff"/>
    <path id="Path_526" data-name="Path 526" d="M886.3,280.358a.221.221,0,0,1-.206-.3l1.774-4.435a.222.222,0,0,1,.411.165l-1.774,4.435A.221.221,0,0,1,886.3,280.358Z" transform="translate(-641.625 -204.683)" fill="#fff"/>
    <ellipse id="Ellipse_34" data-name="Ellipse 34" cx="1.627" cy="2.278" rx="1.627" ry="2.278" transform="translate(244.823 67.088)" fill="#ffb8b8"/>
    <path id="Path_527" data-name="Path 527" d="M399.191,199.169l17.329,3.966,7.322-13.809-14.818-5.785Z" transform="translate(-267.392 -122.941)" fill="#2f2e41"/>
    <path id="Path_528" data-name="Path 528" d="M546.4,509.543s-5.57,12.766-5.57,16.479c0,0,2.2,10.1,1.509,12.882l-2.437,5.222-5.106-2.089L533.4,528.111l.232-22.282Z" transform="translate(-405.39 -358.978)" fill="#ffb9b9"/>
    <path id="Path_529" data-name="Path 529" d="M581.054,281.559s.464,7.659-.464,9.98,3.482,6.731,3.482,6.731l6.963-9.052s-4.642-4.642-3.482-9.748Z" transform="translate(-436.914 -207.355)" fill="#ffb9b9"/>
    <path id="Path_530" data-name="Path 530" d="M532.108,445.721s-6.731,12.533-.232,11.6,4.294-11.953,4.294-11.953" transform="translate(-402.475 -318.483)" fill="#e6e6e6"/>
    <path id="Path_531" data-name="Path 531" d="M396.693,312.749l2.2-21.934-.116-13.346-5.106.928v12.3l-1.044,22.4" transform="translate(-262.998 -185.859)" fill="#ffb9b9"/>
    <path id="Path_532" data-name="Path 532" d="M522.433,602.569l9.98-3.946,1.161,19.729s2.089,6.035,1.393,8.356c0,0,.464,3.946-.7,4.178s-4.41.7-4.642.464-.232-.928-.232-.928-2.321,1.625-2.553,3.482c0,0-9.748,3.017-9.98.232s4.874-5.106,4.874-5.106l3.946-6.035Z" transform="translate(-394.309 -421.135)" fill="#2f2e41"/>
    <path id="Path_533" data-name="Path 533" d="M609.313,509.543s-5.57,12.765-5.57,16.479c0,0,2.2,10.1,1.509,12.882l-2.437,5.222-5.106-2.089-1.393-13.926.232-22.282Z" transform="translate(-447.534 -358.979)" fill="#ffb9b9"/>
    <path id="Path_534" data-name="Path 534" d="M586.4,602.569l9.981-3.946,1.161,19.729s2.089,6.035,1.393,8.356c0,0,.464,3.946-.7,4.178s-4.41.7-4.642.464-.232-.928-.232-.928-2.321,1.625-2.553,3.482c0,0-9.748,3.017-9.98.232s4.874-5.106,4.874-5.106l3.946-6.035Z" transform="translate(-437.159 -421.135)" fill="#2f2e41"/>
    <path id="Path_535" data-name="Path 535" d="M581.645,254.561a7.428,7.428,0,0,1-14.674,1.625,7.19,7.19,0,0,1-.182-1.625,7.428,7.428,0,1,1,14.856,0Z" transform="translate(-427.756 -185.695)" fill="#ffb9b9"/>
    <path id="Path_536" data-name="Path 536" d="M556.31,308.546l5.764-2.993,2.592,2.065s6.267-.232,8.588,2.553,3.6,9.864,3.6,9.864-7.659-1.625-6.731,4.874l-1.392-3.714-1.276,3.133L551.9,329.667l-6.963-11.837s-4.642-1.393-6.267,1.857c0,0,.348-11.721,4.874-12.069,3.044-.234,5.338-.232,5.338-.232l2.553-.464,1.635-.58Z" transform="translate(-408.921 -224.826)" fill="#575a89"/>
    <path id="Path_537" data-name="Path 537" d="M560.524,386.865s12.185,36.556,8.7,41.662c0,0-13,6.5-38.993-2.321l10.56-40.966A35.9,35.9,0,0,1,560.524,386.865Z" transform="translate(-403.271 -277.731)" fill="#2f2e41"/>
    <path id="Path_538" data-name="Path 538" d="M578.888,335.8l3.43-11.785c-4.114-4.474-.563-14.395-.563-14.395l-4.964-1.064s-4.982,13.433-10.088,11.808-2.321-12.069-2.321-12.069l-4.642.464-2.089,8.124,1.509,17.292A64.866,64.866,0,0,1,578.888,335.8Z" transform="translate(-421.635 -226.661)" fill="#575a89"/>
    <path id="Path_539" data-name="Path 539" d="M486.323,312.749l1.625-22.05.464-13.229-5.106.928v12.3l-1.045,22.4" transform="translate(-323.035 -185.859)" fill="#ffb9b9"/>
    <path id="Path_540" data-name="Path 540" d="M621.739,445.721s-6.731,12.533-.232,11.6,4.294-11.953,4.294-11.953" transform="translate(-462.513 -318.483)" fill="#fff"/>
    <path id="Path_541" data-name="Path 541" d="M638.641,325.317s-.825-11.92-7.724-11.878v13.785S636.089,324.157,638.641,325.317Z" transform="translate(-470.712 -230.109)" fill="#575a89"/>
    <path id="Path_542" data-name="Path 542" d="M596.1,268.519a.189.189,0,0,1-.118-.337l3.788-3.03a.19.19,0,0,1,.237.3l-3.788,3.03A.19.19,0,0,1,596.1,268.519Z" transform="translate(-447.26 -197.737)" fill="#fff"/>
    <path id="Path_543" data-name="Path 543" d="M575.908,278.051c-.083.1-.167.2-.254.3a7.428,7.428,0,0,1-10.315-5.137l3.589-.66,6.979.66C574.31,275.16,574.5,275.835,575.908,278.051Z" transform="translate(-426.785 -202.722)" fill="#fff"/>
    <path id="Path_544" data-name="Path 544" d="M555.31,236.037s-3.839.722-4.727,5.51a8.79,8.79,0,0,0-.075,2.445,6.9,6.9,0,0,1-2.041,5.16,50.168,50.168,0,0,0-3.644,4.679h0l4.011,1.068,1.792-6.646a34,34,0,0,1,3.973-9.131l.037-.059s1.332,3.56,4.9,4.048l-1.1-1.45a45.446,45.446,0,0,0,6.539,3.15,1.554,1.554,0,0,1,.5,2.7l-.051.04c-1.74,1.321-5.288,4.474-3.886,7.523s-.233,3.606-.233,3.606l3.015-1.147,1.38-.591-.139,1.02,6.736.141s1.82-.011-1.413-4.87a4.587,4.587,0,0,1-.14-3.214,7.4,7.4,0,0,0,.747-3.388C571.29,241.735,569.227,231.769,555.31,236.037Z" transform="translate(-413.043 -177.567)" fill="#2f2e41"/>
    <path id="Path_545" data-name="Path 545" d="M237.971,554.889s0,31.518-7.234,39.785c0,0-1.55,4.134-2.067,5.684a21.732,21.732,0,0,1-1.033,2.583v2.067s-13.951-1.55-15.5-5.167l2.583-3.1s.517-.517,0-2.067a1.061,1.061,0,0,1,1.033-1.55l3.617-8.267-.517-34.1,2.584-47.019,22.218-1.033Z" transform="translate(-190.198 -356.884)" fill="#2f2e41"/>
    <path id="Path_546" data-name="Path 546" d="M185.709,798.981s3.617,10.851,0,11.367-35.135,1.033-34.618-3.1,10.851-3.617,10.851-3.617l10.851-6.717Z" transform="translate(-149.303 -553.957)" fill="#2f2e41"/>
    <path id="Path_547" data-name="Path 547" d="M277.508,505.833a23.444,23.444,0,0,1-3.1,13.951c-4.134,7.234-1.55,31.518-1.55,31.518l36.685,32.035s-7.234,12.4-9.817,11.884-43.4-33.585-43.4-33.585L240.306,507.9Z" transform="translate(-209.067 -358.981)" fill="#2f2e41"/>
    <path id="Path_548" data-name="Path 548" d="M423.12,736.429s11.1,2.754,9.6,6.085-17.937,30.229-21.151,27.58,2.754-11.1,2.754-11.1l.135-12.761Z" transform="translate(-323.148 -513.442)" fill="#2f2e41"/>
    <path id="Path_549" data-name="Path 549" d="M279.722,190.644A11.888,11.888,0,0,1,265.539,202.3a11.531,11.531,0,0,1-3.054-1.051,11.877,11.877,0,0,1-6.186-7.765,11.7,11.7,0,0,1-.345-2.842,11.884,11.884,0,1,1,23.768,0Z" transform="translate(-219.548 -139.896)" fill="#a0616a"/>
    <path id="Path_550" data-name="Path 550" d="M293.927,227.453l-.526,15.292-10,3.951s-.981-15.658-2.365-16.526S293.927,227.453,293.927,227.453Z" transform="translate(-236.287 -172.512)" fill="#a0616a"/>
    <path id="Path_551" data-name="Path 551" d="M245.988,264.152s13.951-13.951,17.568-13.434,3.617,2.067,3.617,3.1-1.033,1.55,0,2.067,2.067,0,2.067,1.55,9.3,17.051,6.2,34.1-6.717,25.318-5.167,34.619.517,11.367.517,11.367-38.752,3.1-39.269-.517,1.55-1.55-1.033-4.134-1.55-2.583-1.55-4.134S240.3,264.152,245.988,264.152Z" transform="translate(-201.315 -188.087)" fill="#575a89"/>
    <path id="Path_552" data-name="Path 552" d="M277.563,494.834s-6.2,14.984-10.851,11.367,2.067-16.017,2.067-16.017Z" transform="translate(-225.656 -348.499)" fill="#fff"/>
    <path id="Path_553" data-name="Path 553" d="M294.826,294.374s12.14,1.39,7.62,23.688-22.087,48.133-22.087,48.133l-11.884-5.684,15.5-30.485-3.617-19.118S278.292,292.824,294.826,294.374Z" transform="translate(-227.935 -217.275)" fill="#575a89"/>
    <path id="Path_554" data-name="Path 554" d="M135.925,342.279,118.874,370.7l1.55,1.55Z" transform="translate(-79.626 -229.27)" opacity="0.2"/>
    <path id="Path_555" data-name="Path 555" d="M170.108,382.389,156.433,404.8h4.65Z" transform="translate(-104.784 -256.137)" opacity="0.2"/>
    <rect id="Rectangle_139" data-name="Rectangle 139" width="0.735" height="38.155" transform="translate(33.746 167.237) rotate(-20.877)" opacity="0.2"/>
    <circle id="Ellipse_35" data-name="Ellipse 35" cx="0.735" cy="0.735" r="0.735" transform="translate(44.012 77.432)" fill="#d0cde1"/>
    <line id="Line_32" data-name="Line 32" x1="6.248" y2="20.213" transform="translate(38.499 78.167)" fill="none"/>
    <path id="Path_556" data-name="Path 556" d="M261.548,317.636a.367.367,0,0,0,.351-.259l6.248-20.213a.367.367,0,1,0-.7-.217L261.2,317.16a.368.368,0,0,0,.351.476Z" transform="translate(-223.049 -218.888)" fill="#d0cde1"/>
    <path id="Path_557" data-name="Path 557" d="M264.815,226.309l-2.97,2.825c-3.059-1.539-6.013-5.687-6.847-9.086l3.9-1.633C259.15,221.883,261.611,224.188,264.815,226.309Z" transform="translate(-218.908 -166.459)" fill="#fff"/>
    <path id="Path_558" data-name="Path 558" d="M272.461,219.9l-.035,0-6.907-.987a.247.247,0,1,1,.069-.489l6.906.987a.247.247,0,0,1-.034.491Z" transform="translate(-225.813 -166.459)" fill="#fff"/>
    <path id="Path_559" data-name="Path 559" d="M283.484,233.057a.246.246,0,0,1-.215-.368l2.288-4.074a.247.247,0,0,1,.43.242l-2.288,4.074A.246.246,0,0,1,283.484,233.057Z" transform="translate(-237.823 -173.207)" fill="#fff"/>
    <path id="Path_560" data-name="Path 560" d="M273.531,186.558a17.109,17.109,0,0,0-3.121-.93,8.165,8.165,0,0,1-5.424-9.154,4.672,4.672,0,0,0,.2-1.509,2.881,2.881,0,0,0-2.4-2.116,23.647,23.647,0,0,1-3.344-.637,5.065,5.065,0,0,1-2.955-4.062,8.391,8.391,0,0,1,1.121-5.057l.4,1.151a4.271,4.271,0,0,0,1.307-1.955,2.693,2.693,0,0,1,2.052,1.65c.642.379.735-1.176,1.444-1.406a1.274,1.274,0,0,1,.885.218c1.429.667,3.09.1,4.623-.273a17.4,17.4,0,0,1,8.079-.01,9.671,9.671,0,0,1,4.774,2.457,11.457,11.457,0,0,1,2.233,3.838,22.11,22.11,0,0,1,1.8,10.738,15.2,15.2,0,0,1-3.582,8.053c-1.023,1.178-4.359,5.289-6.189,4.588C273.131,191.263,276.24,187.99,273.531,186.558Z" transform="translate(-219.862 -128.67)" fill="#2f2e41"/>
  </g>
</svg>
