<svg xmlns="http://www.w3.org/2000/svg" width="299.998" height="245.075" viewBox="0 0 299.998 245.075">
  <g id="Special_Angkatan_Illustration_2" data-name="Special Angkatan Illustration 2" transform="translate(-0.001 -0.021)">
    <path id="Path_447" data-name="Path 447" d="M401.253,190.588v.556q-.049,4.816-.571,9.608a.34.34,0,0,1,0,.058c-.027.266-.058.528-.088.794-.052.449-.107.894-.168,1.343a96.6,96.6,0,0,1-3.519,16.112h0a86.89,86.89,0,0,1-9.187,20.23q-1.807,2.9-3.849,5.613h0c-.726.958-1.468,1.9-2.234,2.817q-.806.968-1.642,1.9l-.348.385A90.559,90.559,0,0,1,370.185,259a148.5,148.5,0,0,1-17.419,12.19c-.342.211-.687.418-1.032.61a.5.5,0,0,1-.076.046,183.69,183.69,0,0,1-25.364,12.963,115.043,115.043,0,0,1-29.539,8.009c-14.107,1.734-28.385.323-42.407-2.1a275.582,275.582,0,0,1-34.49-8.241L218,281.894q-1.447-.461-2.89-.94-8.72-2.884-17.245-6.41a226.679,226.679,0,0,1-40.695-21.851q-2.442-1.642-4.813-3.357-3.315-2.387-6.55-4.914l-1.331-1.032a136.82,136.82,0,0,1-15.816-14.525,80.649,80.649,0,0,1-15.871-24.418q-.873-2.17-1.6-4.423l-.046-.15c-.244-.763-.47-1.526-.678-2.32q-.458-1.7-.8-3.449c-.049-.223-.092-.446-.131-.671a57.749,57.749,0,0,1-.961-11.882,54.938,54.938,0,0,1,1.221-10.377h0a46.814,46.814,0,0,1,3.458-10.246h0a36.931,36.931,0,0,1,5.289-8.159h0a31.2,31.2,0,0,1,4.984-4.658,40.711,40.711,0,0,1,10.789-5.543h0c1.789-.641,3.6-1.2,5.424-1.724,1.291-.372,2.588-.726,3.879-1.074l3.809-1.029c2.442-.665,4.884-1.349,7.289-2.088a82.1,82.1,0,0,0,18.924-8.039c.94-.571,1.9-1.2,2.857-1.868q1.831-1.273,3.614-2.765h0c1.2-1.007,2.381-2.085,3.5-3.226.174-.177.345-.354.516-.534.916-.964,1.8-1.975,2.628-3.025.4-.513.794-1.035,1.166-1.566.516-.736,1-1.483,1.456-2.253h0a23.059,23.059,0,0,0,3.5-12.56,19.318,19.318,0,0,0-.2-2.2c-.4-2.7-.778-5.326-1.059-7.9-1.178-10.643-.681-20.294,7.307-29.362,9.932-11.272,25.519-13.57,39.709-12.67C279.654,51.283,317,74.705,349.82,102.59q4.258,3.614,8.412,7.325,1.047.934,2.1,1.88c5.189,4.673,10.3,9.52,15.056,14.712.385.421.769.842,1.148,1.267.232.262.467.522.7.787q2.225,2.518,4.319,5.158a97.718,97.718,0,0,1,9.865,14.956,84.9,84.9,0,0,1,8.662,26.453h0a94.27,94.27,0,0,1,1.047,10.124c.052,1,.085,2,.1,3v.958C401.256,189.672,401.256,190.124,401.253,190.588Z" transform="translate(-108.55 -48.49)" fill="#ff004f" opacity="0.5"/>
    <path id="Path_448" data-name="Path 448" d="M382.863,445.961l-4.884,86.923,4.884.064,3.968-88.208Z" transform="translate(-262.612 -308.982)" fill="#3f3d56"/>
    <rect id="Rectangle_129" data-name="Rectangle 129" width="60.433" height="13.124" transform="translate(41.81 181.019)" fill="#ff004f"/>
    <path id="Path_449" data-name="Path 449" d="M299.516,679.51v8.241H237.09q-3.315-2.387-6.55-4.914V679.51Z" transform="translate(-193.305 -486.895)" fill="#3f3d56"/>
    <path id="Path_450" data-name="Path 450" d="M272.99,537.891c-.171.791-.394,1.572-.629,2.35a30.638,30.638,0,0,0-1.688,6.806c-.217,3.089.61,6.681-1.526,8.925-.549.58-1.267,1.013-1.758,1.633a2.844,2.844,0,0,0-.208.305,4.73,4.73,0,0,0-.5,2.442,42.733,42.733,0,0,0,.345,5.3c.723,6.043,2.152,12.1.275,17.8a27.459,27.459,0,0,1-1.187,2.9,22.687,22.687,0,0,0-2.213,6.184,38.961,38.961,0,0,0-.165,4.929q-1.447-.461-2.89-.94-8.72-2.884-17.245-6.409c.015-.082.031-.168.043-.25a19.445,19.445,0,0,0-.888-8.143c-1.526-5.613-3.687-11.171-4.966-16.824a42.576,42.576,0,0,1-1.01-6.715c-.037-.507-.058-1.016-.061-1.526-.015-.665,0-1.331.027-2,.064-1.34.122-2.93-.949-3.745a8.212,8.212,0,0,0-2.054-.787c-1.325-.516-2.231-1.712-3.281-2.671a4.3,4.3,0,0,0-3.843-1.129c-6.861,1.572-11.9,7.392-18.289,10.335-.247.116-.494.226-.745.33a10.846,10.846,0,0,0-2.341,1.2,2.667,2.667,0,0,0-1.05,1.48,5.538,5.538,0,0,0,.058,1.99,10.16,10.16,0,0,1-.137,3.245,9.9,9.9,0,0,1-.327,1.221c-.244.723-.571,1.431-.882,2.137q-2.442-1.642-4.813-3.357-3.315-2.387-6.55-4.914l-1.309-1.053a136.821,136.821,0,0,1-15.816-14.525A55.291,55.291,0,0,0,176.462,539c.256-1.077.351-2.2.705-3.244a11.666,11.666,0,0,1,1.685-3.022,40.9,40.9,0,0,1,9.382-9.389c3.782-2.71,8.149-4.883,11.553-7.96a18.228,18.228,0,0,0,3.531-4.185,2.623,2.623,0,0,0,.162-.305,6.334,6.334,0,0,0,.546-1.746c.244-1.367.208-2.869.33-4.181a44.6,44.6,0,0,0,12.554.378c4.868-.546,9.63-1.9,14.5-2.423.366-.043.736-.076,1.1-.107,1.56-.125,3.122-.153,4.688-.134,1.309,0,2.619.058,3.928.1l14.415.488a14.15,14.15,0,0,1,4.713.7,10.3,10.3,0,0,1,4.31,3.589c.143.2.287.391.421.592a18.615,18.615,0,0,1,2.222,4.392c.058.159.113.305.165.479.137.424.256.852.363,1.285.082.339.156.677.223,1.019a43.782,43.782,0,0,0,1.065,5.051c.037.119.076.238.119.354.638,1.789,1.7,3.391,2.5,5.109a18.975,18.975,0,0,1,1.312,3.885A19.2,19.2,0,0,1,272.99,537.891Z" transform="translate(-154.314 -364.033)" fill="#35323e"/>
    <path id="Path_451" data-name="Path 451" d="M264.466,259.043c-1.288-1.026-3.156-.275-4.664.388a29.932,29.932,0,0,1-3.895,1.407,1.645,1.645,0,0,1-.855.089c-.61-.147-.867-.87-1.322-1.309-.791-.76-2.085-.58-3.1-.168a7.084,7.084,0,0,1-3.119.916c-1.166-.092-2.179-.952-3.357-.98-2.075-.049-3.818,2.509-5.781,1.831-1.2-.412-2.137-1.969-3.315-1.526-.916.348-1,1.615-1.551,2.442-.65.965-1.917,1.236-3,1.663a8.619,8.619,0,0,0-5.231,8.8c.247,2.011,1.221,3.855,1.865,5.775,1.911,5.582,1.254,11.879,3.663,17.263.305-.287.476-.394.772-.678a7.063,7.063,0,0,0-.412,5.067c.253.845.665,1.633.977,2.46a22.05,22.05,0,0,1,.781,2.839l2.655,11.714a76.067,76.067,0,0,1,2.259,13.845,40.408,40.408,0,0,1-.7,9.1c4.81-.8,9.212-2.93,14.086-2.9a39.272,39.272,0,0,1,5.335.549,109.817,109.817,0,0,0,15.606,1.059,6.2,6.2,0,0,0,2.393-.336,17.958,17.958,0,0,0,1.856-1.166,8.209,8.209,0,0,1,4.178-.916c6.529-.119,12.819,2.271,19.305,3.113a23.243,23.243,0,0,0,.748-17.434,26.034,26.034,0,0,1-1.6-5.051,25.543,25.543,0,0,1-.073-3.244,23.537,23.537,0,0,0-1.474-8.113,8.34,8.34,0,0,1-.794-3.135,7.123,7.123,0,0,1,1.1-3.052,21.182,21.182,0,0,1,9.019-9.846l4.71-3.162a46.465,46.465,0,0,0-3.2-12.1,21.509,21.509,0,0,0-7.792-9.37,25.747,25.747,0,0,0-3.681-1.831,17.1,17.1,0,0,0-5.57-1.526,29.528,29.528,0,0,0-6.532.83C277.926,263.5,269.887,263.355,264.466,259.043Z" transform="translate(-189.607 -194.413)" fill="#ff004f"/>
    <path id="Path_452" data-name="Path 452" d="M237.156,488.4l-2.24,2.829-4.224,5.332-4.883,6.162-1.364,1.721H221.8l-65.527.076-41.037.046H113.4c-.244-.763-.47-1.526-.678-2.32q-.458-1.7-.8-3.449c-.049-.223-.092-.446-.131-.671l14.889-9.733,5.6-.03h0l17.123-.1h0l9.562-.055H161.8l6.373-.034h0l48.573-.278h0l2.484-.015h1.077l2.854-.015,10.619-.061,2.039-.775.15.159Z" transform="translate(-110.8 -353.164)" fill="#3f3d56"/>
    <path id="Path_453" data-name="Path 453" d="M233.99,456.655l-.253.305-1.667,1.963-3.431,4.05-7.194,8.482-63.73-1.627-48.057-1.221c-.049-.223-.092-.446-.131-.671a57.75,57.75,0,0,1-.961-11.882l5.329-2.729,1.221-.629,9.5-4.883,8.339-4.273,21.75,2.826,4.816.626,2.179.281,3.19.415.269.037,50.016,6.486,5.528.717,3.244.421,10,1.3Z" transform="translate(-108.55 -322.948)" fill="#504f60"/>
    <path id="Path_454" data-name="Path 454" d="M466.111,534.51l-.052,1.2-.305,6.773-1.642,37.237-.348,8.049-.916,20.706-.516,11.7-1.862-.583q-1.447-.461-2.89-.94l4.465-81.188.095-1.7,1.966-.61Z" transform="translate(-351.048 -386.152)" fill="#3f3d56"/>
    <path id="Path_455" data-name="Path 455" d="M117.472,534.22l-.137,3.135-.2,4.578q-.873-2.17-1.6-4.423l-.046-.15c-.244-.763-.47-1.526-.678-2.32Z" transform="translate(-112.898 -385.951)" fill="#3f3d56"/>
    <ellipse id="Ellipse_20" data-name="Ellipse 20" cx="14.04" cy="18.924" rx="14.04" ry="18.924" transform="translate(70.348 64.273)" fill="#a1616a"/>
    <ellipse id="Ellipse_21" data-name="Ellipse 21" cx="14.04" cy="18.924" rx="14.04" ry="18.924" transform="translate(70.348 64.273)" opacity="0.1"/>
    <circle id="Ellipse_22" data-name="Ellipse 22" cx="19.534" cy="19.534" r="19.534" transform="translate(66.838 52.217)" fill="#a1616a"/>
    <path id="Path_456" data-name="Path 456" d="M343.648,183.89a25.012,25.012,0,0,0-3.544.54,28.691,28.691,0,0,0-8.36,4.053,9.949,9.949,0,0,0-3.089,2.582c-1.3,1.938-.8,4.4-1.526,6.556a18.881,18.881,0,0,1-1.663,3.125,37.212,37.212,0,0,0-3.3,8.986c-.171.635-.22,1.5.473,1.74a1.907,1.907,0,0,0,1.184-.134c2.188-.723,4.969-.931,6.593.537s1.486,4.072,3.418,5.189c2.213,1.291,5.668-.269,7.676,1.254.861.653,1.172,1.7,1.877,2.488,1.642,1.831,4.8,1.743,7.429,1.373,1.508-.214,3.357-.357,4.273.7.44.5.565,1.187,1.074,1.639.916.818,2.591.4,3.486-.436a23.447,23.447,0,0,0,2.066-2.918c1.45-1.831,4-2.829,5.494-4.639a11.176,11.176,0,0,0,1.972-5.28l1.273-6.834c.516-2.771.986-5.8-.574-8.241-.556-.879-1.352-1.636-1.831-2.546-.321-.61-.5-1.254-.873-1.831a7.6,7.6,0,0,0-1.566-1.581l-3.012-2.494a25.334,25.334,0,0,0-3.293-2.442C355,182.773,348.562,183.433,343.648,183.89Z" transform="translate(-256.888 -142.246)" fill="#464353"/>
    <path id="Path_457" data-name="Path 457" d="M133.777,341.42c-.723.769-1.392,1.6-2.167,2.32a26.227,26.227,0,0,1-2.137,1.709q-1.795,1.343-3.51,2.781a19.656,19.656,0,0,0-3.217,3.214c-1.63,2.188-2.4,4.911-3.928,7.173-1.349,2.005-3.251,3.589-4.621,5.579a8.631,8.631,0,0,0-1.319,2.768,12.862,12.862,0,0,0-.272,2.927,21.739,21.739,0,0,0,.278,4.819,7.309,7.309,0,0,0,2.292,4.163,10.057,10.057,0,0,0,4.093,1.77,3.685,3.685,0,0,0,2.277.064,3.755,3.755,0,0,0,1.325-1.117l3.715-4.273c2.484-2.869,5.067-5.8,8.476-7.478,1.068-.522,2.195-.916,3.266-1.422a17.589,17.589,0,0,0,9-11.553c.305-1.193.5-2.411.7-3.629l.537-3.339a1.065,1.065,0,0,0,0-.51,1.1,1.1,0,0,0-.391-.464,64.734,64.734,0,0,1-7.246-6.837,16.729,16.729,0,0,0-1.642-1.88c-.769-.61-.711-.565-1.636,0a19.617,19.617,0,0,0-3.87,3.214Z" transform="translate(-111.357 -249.458)" fill="#a1616a"/>
    <path id="Path_458" data-name="Path 458" d="M262.207,421.755a.574.574,0,1,0-1.032.5l-.305.15,9.1,18.655,1.645-.8-9.1-18.667Z" transform="translate(-214.378 -307.573)" fill="#3f3d56"/>
    <path id="Path_459" data-name="Path 459" d="M133.777,341.42c-.723.769-1.392,1.6-2.167,2.32a26.227,26.227,0,0,1-2.137,1.709q-1.795,1.343-3.51,2.781a19.656,19.656,0,0,0-3.217,3.214c-1.63,2.188-2.4,4.911-3.928,7.173-1.349,2.005-3.251,3.589-4.621,5.579a8.631,8.631,0,0,0-1.319,2.768,12.862,12.862,0,0,0-.272,2.927,21.739,21.739,0,0,0,.278,4.819,7.309,7.309,0,0,0,2.292,4.163,10.057,10.057,0,0,0,4.093,1.77,3.685,3.685,0,0,0,2.277.064,3.755,3.755,0,0,0,1.325-1.117l3.715-4.273c2.484-2.869,5.067-5.8,8.476-7.478,1.068-.522,2.195-.916,3.266-1.422a17.589,17.589,0,0,0,9-11.553c.305-1.193.5-2.411.7-3.629l.537-3.339a1.065,1.065,0,0,0,0-.51,1.1,1.1,0,0,0-.391-.464,64.734,64.734,0,0,1-7.246-6.837,16.729,16.729,0,0,0-1.642-1.88c-.769-.61-.711-.565-1.636,0a19.617,19.617,0,0,0-3.87,3.214Z" transform="translate(-111.357 -249.458)" opacity="0.04"/>
    <path id="Path_460" data-name="Path 460" d="M475.141,399.116a14.251,14.251,0,0,1-.916,5.729,3.051,3.051,0,0,1-1.7,1.779,3.948,3.948,0,0,1-1.493.055,53.923,53.923,0,0,0-17.852,1.416c1.557-3.113.662-6.846,1.093-10.3.119-.943.336-1.871.418-2.817.305-3.357-1.132-6.617-1.792-9.932a22.219,22.219,0,0,1,0-8.693,5.8,5.8,0,0,1,.748-2.091,4.907,4.907,0,0,1,1.715-1.493,14.4,14.4,0,0,1,8.165-1.383c1.871.125,5.622-.052,7.182,1.1,1.706,1.261,2.246,5.494,2.707,7.45a63.021,63.021,0,0,1,1.4,9.117A97.961,97.961,0,0,1,475.141,399.116Z" transform="translate(-347.501 -272.774)" fill="#a1616a"/>
    <path id="Path_461" data-name="Path 461" d="M59.98,436.03l10.988,7.325,49.445-1.831L87.755,436.03Z" transform="translate(-41.672 -302.93)" fill="#fff"/>
    <path id="Path_462" data-name="Path 462" d="M187.083,286.938c-1.8,1.59-3.333,3.464-5.042,5.158a69.386,69.386,0,0,1-7.661,6.272,5.7,5.7,0,0,1,3.968,4c.116.449.174.916.305,1.355a7.4,7.4,0,0,0,1.7,2.747c3.095,3.489,7.426,6.071,9.251,10.377a.959.959,0,0,0,.366.519.8.8,0,0,0,.473.055c1.651-.174,2.915-1.5,3.968-2.8a29.258,29.258,0,0,0,5.189-9.132,16.277,16.277,0,0,0,.076-10.377,26.564,26.564,0,0,0-2.4-4.679q-1.187-1.975-2.369-3.943c-.412-.693-.937-2.1-1.746-2.442C191.411,283.3,188.2,285.818,187.083,286.938Z" transform="translate(-154.286 -212.04)" fill="#ff004f"/>
    <path id="Path_463" data-name="Path 463" d="M464.03,344.4l2.6,6.1a18.872,18.872,0,0,0-17.062,2.365,9.585,9.585,0,0,0-3.507,4.081,1.783,1.783,0,0,1-1.767-.693,3.544,3.544,0,0,1-.653-1.868c-.241-2.344.647-4.642,1.526-6.834a9.84,9.84,0,0,1,1.557-2.906,9.092,9.092,0,0,1,2.655-1.9,59.132,59.132,0,0,1,9.63-4.255c1.4-.455,2.875-.446,3.663.867C463.582,340.924,463.316,342.731,464.03,344.4Z" transform="translate(-341.334 -249.773)" fill="#ff004f"/>
    <path id="Path_464" data-name="Path 464" d="M135.257,413.719c.65.519,1.221,1.132,1.889,1.627a13.493,13.493,0,0,0,2.246,1.26l3.009,1.447a16.866,16.866,0,0,0,2.915,1.184c1.288.345,2.64.379,3.934.7,1.633.4,3.125,1.242,4.734,1.728a5.474,5.474,0,0,0,4.835-.446c.839-.632,1.474-1.676,2.515-1.831a3.329,3.329,0,0,1,1.917.549l7.832,4.117a5.967,5.967,0,0,1,2.726,2.231c.552,1.059.18,2.668-.983,2.942a10.737,10.737,0,0,1-1.221.07.957.957,0,0,0-.9.693,1.391,1.391,0,0,0,.192.717,3,3,0,0,1,.046,2.552,1.825,1.825,0,0,1-2.216.916c.137,1.181-1.148,2.008-2.292,2.323-2.887.791-5.949.305-8.9-.2a12.2,12.2,0,0,1-3.394-.916c-.507-.247-.977-.565-1.489-.794a10.63,10.63,0,0,0-4.545-.516c-7.115.125-14.168-1.193-21.164-2.506a10.235,10.235,0,0,1-3.739-1.221c-2.137-1.392-2.93-4.249-2.579-6.776a20.344,20.344,0,0,1,2.893-7.038l1.633-2.878a3.7,3.7,0,0,1,.879-1.16C128.435,410.663,133.2,412.064,135.257,413.719Z" transform="translate(-116.885 -300.779)" fill="#a1616a"/>
    <path id="Path_465" data-name="Path 465" d="M135.257,413.719c.65.519,1.221,1.132,1.889,1.627a13.493,13.493,0,0,0,2.246,1.26l3.009,1.447a16.866,16.866,0,0,0,2.915,1.184c1.288.345,2.64.379,3.934.7,1.633.4,3.125,1.242,4.734,1.728a5.474,5.474,0,0,0,4.835-.446c.839-.632,1.474-1.676,2.515-1.831a3.329,3.329,0,0,1,1.917.549l7.832,4.117a5.967,5.967,0,0,1,2.726,2.231c.552,1.059.18,2.668-.983,2.942a10.737,10.737,0,0,1-1.221.07.957.957,0,0,0-.9.693,1.391,1.391,0,0,0,.192.717,3,3,0,0,1,.046,2.552,1.825,1.825,0,0,1-2.216.916c.137,1.181-1.148,2.008-2.292,2.323-2.887.791-5.949.305-8.9-.2a12.2,12.2,0,0,1-3.394-.916c-.507-.247-.977-.565-1.489-.794a10.63,10.63,0,0,0-4.545-.516c-7.115.125-14.168-1.193-21.164-2.506a10.235,10.235,0,0,1-3.739-1.221c-2.137-1.392-2.93-4.249-2.579-6.776a20.344,20.344,0,0,1,2.893-7.038l1.633-2.878a3.7,3.7,0,0,1,.879-1.16C128.435,410.663,133.2,412.064,135.257,413.719Z" transform="translate(-116.885 -300.779)" opacity="0.04"/>
    <path id="Path_466" data-name="Path 466" d="M333.536,433.358c-1.59.751-3.415.824-5.076,1.4a30.061,30.061,0,0,0-4.594,2.46c-3.968,2.216-8.546,3.052-13.042,3.849a38.049,38.049,0,0,1-8.241.861c-3.718-.159-7.289-1.4-10.89-2.332s-7.444-1.563-11.012-.513a12.4,12.4,0,0,0-8.088,7.762,17.878,17.878,0,0,0-.708,6.874c.751.552,1.8-.214,2.21-1.053s.632-1.868,1.425-2.356c1.377.467,1.712,2.3,2.848,3.208a5.142,5.142,0,0,0,2.555.845l4.639.659c1.117.159,2.414.266,3.223-.522.394-.382.61-.916.971-1.325a3.6,3.6,0,0,1,3.07-.849c3.431.342,6.648,2.567,10.054,2.039a19.069,19.069,0,0,0,3.379-1.074c6.62-2.338,13.976-.916,20.865-2.256a46.561,46.561,0,0,0,7.658-2.365,15.485,15.485,0,0,0,3.892-1.929,8.192,8.192,0,0,0,3.162-7.267,8.308,8.308,0,0,0-2.933-5.384,10.384,10.384,0,0,0-1.886-1.621C335.785,431.929,334.58,432.866,333.536,433.358Z" transform="translate(-221.993 -315.143)" fill="#a1616a"/>
    <g id="Group_32" data-name="Group 32" transform="translate(65.777 46.369)" opacity="0.1">
      <path id="Path_467" data-name="Path 467" d="M360.9,233.214c-.51-.452-.635-1.138-1.074-1.639-.916-1.059-2.765-.916-4.273-.7-2.628.369-5.8.455-7.429-1.373-.705-.787-1.016-1.831-1.877-2.488-2.008-1.526-5.463.037-7.676-1.254-1.932-1.126-1.807-3.739-3.418-5.189s-4.4-1.261-6.593-.537a1.908,1.908,0,0,1-1.184.134c-.693-.244-.644-1.1-.473-1.74a37.209,37.209,0,0,1,3.3-8.986,18.884,18.884,0,0,0,1.663-3.125c.662-1.935.324-4.124,1.193-5.955a8.218,8.218,0,0,0-2.408,2.137c-1.3,1.938-.8,4.4-1.526,6.556a18.883,18.883,0,0,1-1.663,3.125,37.208,37.208,0,0,0-3.3,8.986c-.171.635-.22,1.5.473,1.74a1.908,1.908,0,0,0,1.184-.134c2.188-.723,4.969-.931,6.593.537s1.486,4.072,3.418,5.189c2.213,1.291,5.668-.269,7.676,1.254.861.653,1.172,1.7,1.877,2.488,1.642,1.831,4.8,1.743,7.429,1.373,1.508-.214,3.357-.357,4.273.7.44.5.565,1.187,1.074,1.639.916.818,2.591.4,3.486-.436a9.257,9.257,0,0,0,1.459-2A2.271,2.271,0,0,1,360.9,233.214Z" transform="translate(-324.055 -200.36)"/>
      <path id="Path_468" data-name="Path 468" d="M461.756,290.691a8.68,8.68,0,0,0-.546.79,16.542,16.542,0,0,0,3.29-2.683,6.468,6.468,0,0,0,.61-.879A16.032,16.032,0,0,0,461.756,290.691Z" transform="translate(-419.348 -261.195)"/>
    </g>
    <path id="Path_469" data-name="Path 469" d="M556.48,446.53l.916,87.6,4.273-.61-.916-86.987Z" transform="translate(-386.631 -310.225)" fill="#3f3d56"/>
    <path id="Path_470" data-name="Path 470" d="M640.48,498.53l.916,87.6,4.273-.61-.916-86.987Z" transform="translate(-444.992 -346.354)" fill="#3f3d56"/>
    <path id="Path_471" data-name="Path 471" d="M999.749,591.257h0l-.018-1.682v-1l-.162-15.407-.253-24.088L999.273,547H995l.021,2,.134,12.9.058,5.585h0l.049,4.523.079,7.82.049,4.612h0v.488l.064,6.062.055,5.344.348-.385q.839-.937,1.642-1.9Z" transform="translate(-724.438 -394.83)" fill="#3f3d56"/>
    <path id="Path_472" data-name="Path 472" d="M619.422,545.03l-2.442,3.65,2.442,16.631,20.755,5.68h33.574L693.9,572.21l9.6-6.568-1.66-11.281-7.325-9.331Z" transform="translate(-428.665 -378.661)" fill="#ff004f"/>
    <path id="Path_473" data-name="Path 473" d="M722.173,605.48l-1.221,10.139s-6.41,19.879,45.172,18.661,42.731-5.274,42.731-5.274l-.305-11.763s1.8,5.567-24.417,4.813-50.666-3.19-50.666-3.19S724.309,620.488,722.173,605.48Z" transform="translate(-533.858 -435.461)" fill="#3f3d56"/>
    <path id="Path_474" data-name="Path 474" d="M838.212,304.635a14.748,14.748,0,0,0-6.663,6.809,43.958,43.958,0,0,0-3.159,9.157,81.512,81.512,0,0,0-2.2,10c-.806,6.019-.2,12.346,2.564,17.751s7.875,9.767,13.857,10.808a25.5,25.5,0,0,0,7.02.082,57.076,57.076,0,0,0,12.395-2.732c4.2-1.419,8.564-3.6,10.432-7.63a17.065,17.065,0,0,0,1.123-7.566,80.489,80.489,0,0,0-3.147-20.691,17.617,17.617,0,0,0-2.417-5.567,17.065,17.065,0,0,0-4.5-3.968C856.376,306.28,846.993,300.643,838.212,304.635Z" transform="translate(-606.923 -225.498)" fill="#fbbebe"/>
    <path id="Path_475" data-name="Path 475" d="M838.212,304.635a14.748,14.748,0,0,0-6.663,6.809,43.958,43.958,0,0,0-3.159,9.157,81.512,81.512,0,0,0-2.2,10c-.806,6.019-.2,12.346,2.564,17.751s7.875,9.767,13.857,10.808a25.5,25.5,0,0,0,7.02.082,57.076,57.076,0,0,0,12.395-2.732c4.2-1.419,8.564-3.6,10.432-7.63a17.065,17.065,0,0,0,1.123-7.566,80.489,80.489,0,0,0-3.147-20.691,17.617,17.617,0,0,0-2.417-5.567,17.065,17.065,0,0,0-4.5-3.968C856.376,306.28,846.993,300.643,838.212,304.635Z" transform="translate(-606.923 -225.498)" opacity="0.05"/>
    <path id="Path_476" data-name="Path 476" d="M794.331,373.753a13.854,13.854,0,0,0,3.052,3.052c2.906,2.008,6.635,2.28,10.164,2.39,2.832.085,6.08-.076,7.856-2.286a9.15,9.15,0,0,0,1.483-3.5,155.281,155.281,0,0,0,4.243-23.126l8.082.027c3.5,14.977,3.211,30.546,2.906,45.926l-.442,22.427-5.207-.552c-12.364-1.309-24.747-2.619-37.179-2.845a212.68,212.68,0,0,0-21.829.72L778.8,382.272c1.471-4.383,2.958-8.824,3.3-13.43.5-6.681-1.376-13.735,1.221-19.915a2.422,2.422,0,0,1,.943-1.273,2.678,2.678,0,0,1,1.615-.125c1.026.137,4.16,0,4.9.656,1.1.952.372,1.1-.015,2.631a32.115,32.115,0,0,0-1.34,8.152A24.079,24.079,0,0,0,794.331,373.753Z" transform="translate(-566.347 -256.198)" fill="#ff004f"/>
    <path id="Path_477" data-name="Path 477" d="M964.877,424.341h0q2.042-2.71,3.849-5.613c-.61-1.306-1.282-2.582-1.816-3.916a39.349,39.349,0,0,1-1.752-6.364q-.238-1.1-.473-2.2c-1.709-7.969-3.315-16.051-3.647-24.131q-.046-1.007-.058-2.014V377.6c.037-1.831.153-3.678.363-5.515.04-.36.085-.72.134-1.08a1.554,1.554,0,0,1,.03-.235l20.755-.757h0l1.746-.064a6.4,6.4,0,0,0,3.458-.791c1.664-1.142,1.859-3.483,1.831-5.494a81.539,81.539,0,0,0-1.721-15.124c-.788-3.742-1.911-7.566-4.432-10.442-2.069-2.362-5.067-4.081-6.144-7.02a31.721,31.721,0,0,0-1.019-3.336,10.393,10.393,0,0,0-2.185-2.616,36.42,36.42,0,0,1-6.989-9.682c-1.236-2.491-2.576-5.238-4.191-6.959-.079-.088-.159-.171-.241-.25-1.373-1.358-2.945-1.953-4.807-1.029a6.158,6.158,0,0,0-.952.592h0a11.6,11.6,0,0,0-1.81,1.721,41.2,41.2,0,0,0-4.923,7.02,39,39,0,0,0-2.515,5.494,37.883,37.883,0,0,0-1.358,4.578c-.262,1.151-.47,2.314-.635,3.48a84.647,84.647,0,0,0-.525,13.289c.092,4.078.272,8.165.641,12.227q.137,1.474.305,2.945.336,2.909.83,5.8c.131.736.266,1.471.415,2.2.037.2.076.391.116.583l.018.082a49.6,49.6,0,0,1,.937,5.161q.037.327.055.65a25.183,25.183,0,0,1-.024,2.994c-.07,1.178-.18,2.353-.235,3.531a5.711,5.711,0,0,1-.021.61c-.015.6,0,1.19,0,1.786a28.3,28.3,0,0,0,.507,4.24,27.425,27.425,0,0,0,2.64,7.46c.116.22.235.436.354.65,1.547,2.765,3.5,5.3,4.932,8.131a35.1,35.1,0,0,1,2.747,8q.305,1.37.58,2.747c.284,1.465.537,2.942.8,4.42.024.146.052.305.079.439.345,1.96.708,3.91,1.175,5.824.272,1.114.577,2.213.934,3.293Z" transform="translate(-689.565 -227.915)" fill="#464353"/>
    <path id="Path_478" data-name="Path 478" d="M868.386,579.286c0,.275-.018.549-.03.827a39.162,39.162,0,0,1-.369,4,26.032,26.032,0,0,1-1.322,5.308,17.9,17.9,0,0,1-1.575,3.238,14.929,14.929,0,0,1-1.959,2.524c-1.831,1.9-4.468,2.512-7.02,3.315a17.271,17.271,0,0,0-3.385,1.383c-.192.107-.381.223-.565.345l-3.193,2.115a9.553,9.553,0,0,0-2.7,2.311,4.988,4.988,0,0,0-.305.516,11.7,11.7,0,0,0-.94,2.82c-1.66,6.916-3.324,13.839-4.462,20.859-.076.464-.15.931-.229,1.4l-.028.147a.755.755,0,0,0-.049-.1A183.685,183.685,0,0,1,814.9,643.254L813,627.383a19.2,19.2,0,0,1-.2-3.9c.18-2.054,1.016-4,1.242-6.049a10.307,10.307,0,0,0-1.09-5.82,6.364,6.364,0,0,1-.894-2.158,1.342,1.342,0,0,1,1.148-1.569,2.82,2.82,0,0,0,.479-2.518,7.316,7.316,0,0,0-.427-1.395c-.519-1.276-1.175-2.665-.729-3.968a1.483,1.483,0,0,0,.153-.763.124.124,0,0,0,0-.049c-.1-.342-.51-.491-.72-.781-.4-.54,0-1.276.244-1.9a7.241,7.241,0,0,0,.409-2.079c.034-.394.058-.791.1-1.181a11.906,11.906,0,0,1,.284-1.569,12.382,12.382,0,0,1,5.015-7.179c1.187-.8,2.509-1.383,3.721-2.137a34.088,34.088,0,0,0,3.547-2.747q4.032-3.357,8.384-6.33a105.885,105.885,0,0,1,9.681-5.878q1.068-.577,2.137-1.123,1.163-.61,2.341-1.157c2.515-1.2,5.369-.751,8.149.049,1.166.333,2.317.73,3.428,1.09a15.877,15.877,0,0,1,3.113,1.4,11.481,11.481,0,0,1,5.344,6.281.335.335,0,0,1,0,.052A15.985,15.985,0,0,1,868.386,579.286Z" transform="translate(-597.152 -406.917)" fill="#f86d70"/>
    <path id="Path_479" data-name="Path 479" d="M868.386,579.286c0,.275-.018.549-.03.827a39.162,39.162,0,0,1-.369,4,26.032,26.032,0,0,1-1.322,5.308,17.9,17.9,0,0,1-1.575,3.238,14.929,14.929,0,0,1-1.959,2.524c-1.831,1.9-4.468,2.512-7.02,3.315a17.271,17.271,0,0,0-3.385,1.383c-.192.107-.381.223-.565.345l-3.193,2.115a9.553,9.553,0,0,0-2.7,2.311,4.988,4.988,0,0,0-.305.516,11.7,11.7,0,0,0-.94,2.82c-1.66,6.916-3.324,13.839-4.462,20.859-.076.464-.15.931-.229,1.4l-.028.147a.755.755,0,0,0-.049-.1A183.685,183.685,0,0,1,814.9,643.254L813,627.383a19.2,19.2,0,0,1-.2-3.9c.18-2.054,1.016-4,1.242-6.049a10.307,10.307,0,0,0-1.09-5.82,6.364,6.364,0,0,1-.894-2.158,1.342,1.342,0,0,1,1.148-1.569,2.82,2.82,0,0,0,.479-2.518,7.316,7.316,0,0,0-.427-1.395c-.519-1.276-1.175-2.665-.729-3.968a1.483,1.483,0,0,0,.153-.763.124.124,0,0,0,0-.049c-.1-.342-.51-.491-.72-.781-.4-.54,0-1.276.244-1.9a7.241,7.241,0,0,0,.409-2.079c.034-.394.058-.791.1-1.181a11.906,11.906,0,0,1,.284-1.569,12.382,12.382,0,0,1,5.015-7.179c1.187-.8,2.509-1.383,3.721-2.137a34.088,34.088,0,0,0,3.547-2.747q4.032-3.357,8.384-6.33a105.885,105.885,0,0,1,9.681-5.878q1.068-.577,2.137-1.123,1.163-.61,2.341-1.157c2.515-1.2,5.369-.751,8.149.049,1.166.333,2.317.73,3.428,1.09a15.877,15.877,0,0,1,3.113,1.4,11.481,11.481,0,0,1,5.344,6.281.335.335,0,0,1,0,.052A15.985,15.985,0,0,1,868.386,579.286Z" transform="translate(-597.152 -406.917)" opacity="0.1"/>
    <path id="Path_480" data-name="Path 480" d="M899.207,446.755a.574.574,0,1,0-1.032.5l-.305.15,9.1,18.655,1.645-.8-9.1-18.667Z" transform="translate(-656.953 -324.942)" fill="#3f3d56"/>
    <circle id="Ellipse_23" data-name="Ellipse 23" cx="19.534" cy="19.534" r="19.534" transform="translate(234.098 63.205)" fill="#fbbebe"/>
    <path id="Path_481" data-name="Path 481" d="M921.881,198.66a25.941,25.941,0,0,0-.69-4.606c-1.148-4.935-3.245-9.794-6.855-13.338a26.716,26.716,0,0,0-.8-2.561.523.523,0,0,0-.021-.061,28.663,28.663,0,0,0-4.609-8.171c-1.145-1.422-2.628-2.826-4.453-2.881a3.61,3.61,0,0,1-1.526-.165,2.746,2.746,0,0,1-.852-.873,7.994,7.994,0,0,0-7.74-2.9l-.189.04c-.107.021-.214.046-.305.073s-.256.073-.385.113q.211.348.412.705.543.968,1.007,1.978.385.842.711,1.712c-3.125.357-5.671,2.576-8,4.688l-5.476,4.969a.236.236,0,0,0-.027.027l-.159.153c-.04.04-.079.079-.116.122a.26.26,0,0,0-.04.043c-.046.049-.089.1-.131.153a2.3,2.3,0,0,0-.2.305,1.133,1.133,0,0,0-.079.143.315.315,0,0,0-.021.046,1.137,1.137,0,0,0-.052.128.042.042,0,0,0,0,.018.731.731,0,0,0-.021.076.916.916,0,0,0,.052.647l3.611.04h.424c.018.482.034.968.052,1.45a20.567,20.567,0,0,0-1.648,1.373,17.9,17.9,0,0,0-1.609,1.7,23.423,23.423,0,0,0-5.128,14.132v1.868c0,.305.027.61.052.916a2.286,2.286,0,0,0,.305,1.132,1.064,1.064,0,0,0,.085.11,2.106,2.106,0,0,0,.647.476l.263.128h0c.131.064.256.125.379.2,1.151.65,1.831,1.9,2.878,2.71.061.046.122.092.183.131l.137.092.085.055.116.067a2.474,2.474,0,0,0,.235.125h0l.146.073h.024c.122.055.244.107.369.153l.174.061.052.018c.049.015.1.034.153.046q.156.046.305.082l.305.067c.119.021.241.043.363.058l.18.024.183.018q.436.04.879.046h0a21.979,21.979,0,0,0,2.768-.192l7.789-.916a16.783,16.783,0,0,1,5.314-.049,35.026,35.026,0,0,1,4.273,1.5c.323.113.647.217.974.305.119.034.241.07.363.1l.168.043.391.095c.14.034.281.067.421.095.2.043.394.079.592.116.134.027.272.049.409.073h.028l.391.061h.095l.29.04c.14.021.281.04.424.055q.467.058.934.1c.5.049,1.01.085,1.526.116l.507.031.507.024,1.526.067h.281a7.873,7.873,0,0,0,1.9-.1c.11-.021.217-.046.323-.076s.2-.061.305-.1a5.225,5.225,0,0,0,2.561-2.53c.122-.229.235-.458.339-.693s.2-.473.284-.711c.107-.305.2-.6.278-.9.024-.082.046-.165.064-.25s.061-.253.085-.382c.076-.351.134-.705.177-1.062a3.259,3.259,0,0,1,.04-.342c.027-.305.049-.589.061-.888v-.684C921.9,199.3,921.881,198.975,921.881,198.66Zm-7.826-18.222c-.247-.232-.5-.455-.757-.665a3.152,3.152,0,0,1,.754.665Z" transform="translate(-642.467 -128.014)" fill="#464353"/>
    <path id="Path_482" data-name="Path 482" d="M737.251,307.211c-2.3-.284-4.578-1.291-6.846-.8a9.489,9.489,0,0,0-3.776,2.094,45.911,45.911,0,0,0-10.612,12.132,6.409,6.409,0,0,0-.98,2.3,6.082,6.082,0,0,0,.421,2.832c2.088,6.168,6.553,11.321,8.586,17.507,2.137,6.507,1.395,13.619-.18,20.285a84.774,84.774,0,0,1-9.413,23.41,13.352,13.352,0,0,1-2.167,2.967c-1.111,1.068-2.6,1.831-3.263,3.229a14.472,14.472,0,0,0-.61,1.96c-.61,1.831-2.088,3.4-2.231,5.332-.107,1.474.592,2.869,1.016,4.273a11.775,11.775,0,0,1-.217,7.356c-1.547,4.243-5.595,8.1-4.42,12.462,2.622-.754,5.528-1.734,6.764-4.166a7.426,7.426,0,0,1,1.389-2.515c1.468-1.248,3.968-.119,5.528-1.267,1.178-.873,1.221-2.661.7-4.035s-1.428-2.582-1.831-4c-.7-2.549.421-5.244.214-7.878-.1-1.221-.473-2.39-.5-3.6a8.465,8.465,0,0,1,2.991-6.181A24.856,24.856,0,0,1,723.8,387.2l7.985-3.968c2.9-1.434,6.071-3.183,7.02-6.272a12.7,12.7,0,0,0,.382-3.6c.271-18.469,4.9-36.565,9.5-54.454a67.465,67.465,0,0,1,2.5-8.217c1.062-2.662,3.141-4.8,4.2-7.27C749.246,302.7,743.633,308.01,737.251,307.211Z" transform="translate(-521.109 -225.546)" fill="#464353"/>
    <path id="Path_483" data-name="Path 483" d="M813.588,590.242c.7,4.273,1.135,8.638,1.471,12.981a148.512,148.512,0,0,1-17.419,12.19c-.342.211-.687.418-1.032.61l-.027.146a.755.755,0,0,0-.049-.1,4.592,4.592,0,0,0-2.3-2.265q-3.379-7.1-6.751-14.193a37.279,37.279,0,0,1-3.052-7.89,1.208,1.208,0,0,0-.037-.177c-.464-2.137-.571-4.355-.879-6.519a18.837,18.837,0,0,0-.833-3.644c-.366-1.053-.87-2.075-1.315-3.1a10.339,10.339,0,0,1-1.032-3.925,2.565,2.565,0,0,0-.186-1.282,3.319,3.319,0,0,0-.833-.806,3.177,3.177,0,0,1-1.026-2.9c-1.831.095-2.863,2.063-3.6,3.733a20.358,20.358,0,0,1-2.613,4.578,8.684,8.684,0,0,1-2.894,2.408c-.1.049-.2.1-.305.14-2.549,1.123-5.524.726-8.287.22-2.414-.442-4.911-.992-6.852-2.494l-.207-.165a8.968,8.968,0,0,1-1.526-1.63,17.738,17.738,0,0,1-2.747-7.936c-.036-.263-.073-.525-.107-.787a29.35,29.35,0,0,1-.229-5.946c.037-.488.089-.977.153-1.462.043-.305.089-.635.14-.952a.086.086,0,0,1,0-.027c.079-.5.165-1.01.25-1.526a14.028,14.028,0,0,1,1.526-5,9.464,9.464,0,0,1,2.246-2.405c.33-.259.668-.507,1.01-.745.556-.385,1.126-.751,1.706-1.1a29.487,29.487,0,0,1,4.578-2.228c.378-.147.763-.284,1.148-.415a9.007,9.007,0,0,1,4.664-.369,24.531,24.531,0,0,0,4.175.244,105.235,105.235,0,0,0,10.75-1.2c4.963-.61,10.3-.684,14.623,1.831.208.119.409.244.611.375a18.084,18.084,0,0,1,5.247,5.546c.305.461.571.934.833,1.413a36.021,36.021,0,0,1,1.639,3.388,4.212,4.212,0,0,1,.455,1.831,2.387,2.387,0,0,1-.049.36c-.082.433-.247.855-.305,1.294-.192,1.663,1.221,3.052,1.749,4.636a22.719,22.719,0,0,1,.5,3.223,16.768,16.768,0,0,0,1.7,4.273,53.466,53.466,0,0,1,2.716,6.828c.531,1.627.986,3.278,1.386,4.945q.2.8.369,1.609C813.075,587.34,813.347,588.787,813.588,590.242Z" transform="translate(-553.43 -392.714)" fill="#f86d70"/>
    <path id="Path_484" data-name="Path 484" d="M677.594,460.817v2.137l-.394-.006-.44-.006-4.908-.061-12.093-.159-3.394-.043-.879-.012-5.094-.064-7.179-.095-15.23-.2-26.429-.342-9.538-.122-3.827-.049-3.522-.046-2.195-.031-2.079-.027-15.41-.2-4.273-.055-.931-.012-.6-1.56-4.392-11.327-.8-2.069.61-2.442,2.747,1.831,1.691.211,27.839,3.461,5.225.65,11.079,1.38,10.854,1.349,4.255.528,25.177,3.132,7.035.876,5.824.723,20.706,2.576Z" transform="translate(-384.894 -308.488)" fill="#3f3d56"/>
    <path id="Path_485" data-name="Path 485" d="M555.98,444.03l5.494,14.345,117.509,2.442V445.251Z" transform="translate(-386.283 -308.488)" fill="#504f60"/>
    <path id="Path_486" data-name="Path 486" d="M575.98,496.03l.916,87.6,4.273-.61-.916-86.987Z" transform="translate(-400.179 -344.617)" fill="#3f3d56"/>
    <path id="Path_487" data-name="Path 487" d="M1053.935,551.384h-.439a96.6,96.6,0,0,1-3.519,16.112l-1.389-16.177-.058-.69,5.134-.592.171-.018Z" transform="translate(-761.629 -396.928)" fill="#3f3d56"/>
    <path id="Path_488" data-name="Path 488" d="M769.582,458.829l-44.715.916-13.888-4.578,37.237-2.137Z" transform="translate(-493.974 -314.742)" fill="#fff"/>
    <path id="Path_489" data-name="Path 489" d="M822.07,457.963a3,3,0,0,0-1.221.87,3.223,3.223,0,0,0-.455,1.386l-.751,4.478a1.981,1.981,0,0,0,.058,1.242c.2.375.763.571,1.047.259a4.02,4.02,0,0,0,.549,2.524,1.76,1.76,0,0,0,2.3.592,1.489,1.489,0,0,0,2.243.348c-.433.147-.464.809-.156,1.145a1.993,1.993,0,0,0,1.245.5,30.458,30.458,0,0,0,15.841-1.993c.473-.2-.772-6.028-.9-6.626-.305-1.407-.458-3.125-1.645-4.072-2.839-2.265-7.881-2.71-11.339-2.442A19.535,19.535,0,0,0,822.07,457.963Z" transform="translate(-602.552 -331.676)" fill="#fbbebe"/>
    <path id="Path_490" data-name="Path 490" d="M901.6,454.431c-11.04.211-22.308.391-32.845-2.915a22.28,22.28,0,0,1-.2,11.864l51.619,4.273c2.188.18,11.263,1.206,13.4.69s-17.9-7.115-17.092-9.157c2.225-5.625,9.678-8.922,4.31-9.132C914.006,449.785,908.424,454.3,901.6,454.431Z" transform="translate(-636.583 -327.466)" opacity="0.1"/>
    <path id="Path_491" data-name="Path 491" d="M902.6,456.431c-11.04.211-22.308.391-32.845-2.915a22.282,22.282,0,0,1-.2,11.864l51.619,4.273c2.188.18,11.263,1.221,13.4.69s1.633-3.147,2.442-5.189c2.225-5.625-9.856-12.889-15.224-13.1C915.006,451.785,909.424,456.3,902.6,456.431Z" transform="translate(-637.277 -328.855)" fill="#464353"/>
    <path id="Path_492" data-name="Path 492" d="M872.953,464.963a2.987,2.987,0,0,1,1.221.87,3.266,3.266,0,0,1,.458,1.386l.751,4.478a2,2,0,0,1-.058,1.242c-.2.375-.766.571-1.047.259a4.041,4.041,0,0,1-.549,2.524,1.763,1.763,0,0,1-2.3.592,1.489,1.489,0,0,1-2.243.348c.433.147.467.809.159,1.145a2,2,0,0,1-1.248.5,30.446,30.446,0,0,1-15.838-1.993c-.473-.2.769-6.028.9-6.626.305-1.407.458-3.125,1.645-4.072,2.836-2.265,7.881-2.71,11.339-2.442a19.533,19.533,0,0,1,6.816,1.792Z" transform="translate(-625.188 -336.539)" fill="#fbbebe"/>
    <path id="Path_493" data-name="Path 493" d="M672.911,381.931a19.536,19.536,0,0,0-2.683,4.163c-1.248,2.906-1.065,6.2-.858,9.352a5.456,5.456,0,0,0,.61,2.61,4.408,4.408,0,0,0,1.593,1.358c2.643,1.5,5.738,1.95,8.76,2.286q6.941.769,13.93.937c11.543.281,23.264-.662,34.508,1.953a8.644,8.644,0,0,1-.61-7.325,24.942,24.942,0,0,1,3.745-6.577c-5.146-1.63-10.664.916-16.054.662-5.534-.259-10.655-3.458-16.195-3.455a14.735,14.735,0,0,1-3.559-.137,2.964,2.964,0,0,1-2.384-2.347c1.477.333,2.878-.931,3.489-2.317s.72-2.951,1.312-4.346c1.474-3.47,5.457-5.079,7.936-7.936a1.944,1.944,0,0,0,.137-2.948c-2.06-2.747-5.164-4.273-7.743-6.41-.9-.745-2.707-3.553-3.714-3.812-1.868-.479-3.452,2.219-4.667,3.534Q681.265,371.172,672.911,381.931Z" transform="translate(-498.093 -263.228)" fill="#464353"/>
    <path id="Path_494" data-name="Path 494" d="M882.39,434.81a10.1,10.1,0,0,1,2.042,2.024,3.485,3.485,0,0,1,.638,2.729,4.078,4.078,0,0,1,2.543-4.221Z" transform="translate(-646.198 -316.883)" opacity="0.07"/>
    <g id="Group_33" data-name="Group 33" transform="translate(234.509 35.094)" opacity="0.1">
      <path id="Path_495" data-name="Path 495" d="M933,166.213a26.554,26.554,0,0,0-1.239-2.793,7.492,7.492,0,0,0-.891.229,25.833,25.833,0,0,1,1.413,2.7A5.117,5.117,0,0,1,933,166.213Z" transform="translate(-914.39 -163.42)"/>
      <path id="Path_496" data-name="Path 496" d="M995.87,212c.082.067.162.143.241.214a.436.436,0,0,0-.021-.058Q995.986,212.079,995.87,212Z" transform="translate(-959.551 -197.172)"/>
      <path id="Path_497" data-name="Path 497" d="M894.487,212.162c.159-.125.305-.256.476-.378l-.049-1.45-3.26-.034c-.528.485-1.09,1.181-.778,1.831Z" transform="translate(-886.542 -195.991)"/>
      <path id="Path_498" data-name="Path 498" d="M920.46,283.284a5.213,5.213,0,0,1-2.561,2.53,6.941,6.941,0,0,1-2.8.262,32.684,32.684,0,0,1-9.529-1.34,33.642,33.642,0,0,0-4.273-1.508,16.7,16.7,0,0,0-5.314.052l-7.789.916c-2.3.269-4.859.47-6.694-.94-1.05-.806-1.728-2.06-2.878-2.707a3.658,3.658,0,0,1-1.376-.916,2.286,2.286,0,0,1-.305-1.132c-.024-.32-.04-.641-.052-.961a25.838,25.838,0,0,0,.052,2.793,2.287,2.287,0,0,0,.305,1.132,3.659,3.659,0,0,0,1.377.916c1.151.647,1.831,1.9,2.878,2.707,1.831,1.41,4.4,1.221,6.694.94l7.789-.916a16.7,16.7,0,0,1,5.314-.052,34.542,34.542,0,0,1,4.273,1.508,32.334,32.334,0,0,0,9.529,1.34,7,7,0,0,0,2.8-.263,5.213,5.213,0,0,0,2.561-2.53,12.955,12.955,0,0,0,1.318-6.852A11.921,11.921,0,0,1,920.46,283.284Z" transform="translate(-876.877 -242.708)"/>
    </g>
    <path id="Path_499" data-name="Path 499" d="M937.56,179l4.273,3.968S938.17,181.442,937.56,179Z" transform="translate(-684.529 -139.151)" opacity="0.1"/>
  </g>
</svg>
