<svg xmlns="http://www.w3.org/2000/svg" width="585" height="510" viewBox="0 0 585 510">
  <g id="Our_Story_Bottom_Left_Graphic" data-name="Our Story Bottom Left Graphic" transform="translate(0 -3590)">
    <g id="Group_39" data-name="Group 39" transform="translate(0 246)">
      <path id="Union_20" data-name="Union 20" d="M-1052-246h30a30,30,0,0,1,30,30h0a30,30,0,0,1-30,30h-30Z" transform="translate(1292 3860)"/>
      <rect id="Rectangle_233" data-name="Rectangle 233" width="60" height="60" transform="translate(180 3674)" fill="#00a9ce"/>
      <rect id="Rectangle_234" data-name="Rectangle 234" width="60" height="60" transform="translate(180 3794)" fill="#00a9ce"/>
      <rect id="Rectangle_235" data-name="Rectangle 235" width="60" height="60" transform="translate(180 3734)" fill="#fff"/>
      <rect id="Rectangle_236" data-name="Rectangle 236" width="60" height="60" transform="translate(180 3554)" fill="#00f7ef"/>
      <path id="Path_673" data-name="Path 673" d="M240,300h30a30,30,0,0,1,30,30h0a30,30,0,0,1-30,30H240Z" transform="translate(0 3494)" fill="#ff004f"/>
      <path id="Path_674" data-name="Path 674" d="M240,240h30a30,30,0,0,1,30,30h0a30,30,0,0,1-30,30H240Z" transform="translate(0 3494)" fill="#00f7ef"/>
      <path id="Path_675" data-name="Path 675" d="M180,30A30,30,0,0,1,210,0h0a30,30,0,0,1,30,30V60H180Z" transform="translate(0 3494)" fill="#00f7ef"/>
      <path id="Path_676" data-name="Path 676" d="M120,90a30,30,0,0,1,30-30h0a30,30,0,0,1,30,30v30H120.358a.358.358,0,0,1-.358-.358Z" transform="translate(0 3494)" fill="#cd0040"/>
      <path id="Path_678" data-name="Path 678" d="M180,120h60a30,30,0,0,1-60,0Z" transform="translate(0 3494)" fill="#06818e" fill-rule="evenodd"/>
      <path id="Path_679" data-name="Path 679" d="M240,240H180a30,30,0,0,1,60,0Z" transform="translate(0 3494)" fill="#06818e" fill-rule="evenodd"/>
      <rect id="Rectangle_237" data-name="Rectangle 237" width="60" height="60" transform="translate(360 3794)" fill="#ff004f"/>
      <rect id="Rectangle_238" data-name="Rectangle 238" width="60" height="60" transform="translate(0 3554)" fill="#00f7ef"/>
      <rect id="Rectangle_239" data-name="Rectangle 239" width="60" height="60" rx="30" transform="translate(0 3614)" fill="#cd0040"/>
      <rect id="Rectangle_240" data-name="Rectangle 240" width="60" height="60" rx="30" transform="translate(300 3734)" fill="#00a9ce"/>
      <path id="Union_19" data-name="Union 19" d="M-1112-156v-60h60v60a30,30,0,0,1-30,30A30,30,0,0,1-1112-156Z" transform="translate(1172 3770)" fill="#cd0040"/>
      <path id="Path_684" data-name="Path 684" d="M105,115.973A30.01,30.01,0,0,1,105,64a30.01,30.01,0,0,1,0,51.973Z" transform="translate(0 3494)" fill="#fff" fill-rule="evenodd"/>
      <path id="Path_685" data-name="Path 685" d="M240,60a30,30,0,0,1-30,30A30,30,0,0,1,240,60Z" transform="translate(0 3494)" fill-rule="evenodd"/>
      <path id="Path_686" data-name="Path 686" d="M60,60A30,30,0,0,1,30,90,30,30,0,0,1,60,60Z" transform="translate(0 3494)" fill="#00a9ce" fill-rule="evenodd"/>
      <path id="Path_687" data-name="Path 687" d="M0,120A30,30,0,0,1,30,90,30,30,0,0,1,0,120Z" transform="translate(0 3494)" fill="#06818e" fill-rule="evenodd"/>
      <path id="Path_688" data-name="Path 688" d="M285,295.973A30.01,30.01,0,0,1,285,244a30.01,30.01,0,0,1,0,51.973Z" transform="translate(0 3494)" fill-rule="evenodd"/>
      <rect id="Rectangle_242" data-name="Rectangle 242" width="60" height="60" rx="30" transform="translate(120 3734)" fill="#00f7ef"/>
      <rect id="Rectangle_243" data-name="Rectangle 243" width="60" height="60" rx="30" transform="translate(120 3674)" fill="#ff004f"/>
      <rect id="Rectangle_244" data-name="Rectangle 244" width="30" height="30" rx="15" transform="translate(135 3629)" fill="#00a9ce"/>
      <rect id="Rectangle_245" data-name="Rectangle 245" width="30" height="30" rx="15" transform="translate(15 3629)"/>
      <rect id="Rectangle_246" data-name="Rectangle 246" width="30" height="30" rx="15" transform="translate(195 3749)" fill="#ff004f"/>
      <rect id="Rectangle_247" data-name="Rectangle 247" width="30" height="30" rx="15" transform="translate(255 3689)" fill="#ff004f"/>
      <rect id="Rectangle_248" data-name="Rectangle 248" width="30" height="30" rx="15" transform="translate(195 3599)" fill="#ff004f"/>
      <path id="Path_689" data-name="Path 689" d="M330,330a30,30,0,0,1,30-30A30,30,0,0,1,330,330Z" transform="translate(0 3494)" fill-rule="evenodd"/>
      <path id="Path_690" data-name="Path 690" d="M270,210a30,30,0,0,1-30,30A30,30,0,0,1,270,210Z" transform="translate(0 3494)" fill="#06818e" fill-rule="evenodd"/>
      <path id="Path_691" data-name="Path 691" d="M180,210a30,30,0,0,1-30,30A30,30,0,0,1,180,210Zm-60,60a30,30,0,0,1,30-30A30,30,0,0,1,120,270Zm30-30a30,30,0,0,1-30-30A30,30,0,0,1,150,240Zm0,0a30,30,0,0,1,30,30A30,30,0,0,1,150,240Z" transform="translate(0 3494)" fill="#51c5d2" fill-rule="evenodd"/>
    </g>
    <g id="Group_42" data-name="Group 42" transform="translate(-158.5 126.5)">
      <path id="Path_701" data-name="Path 701" d="M180,180H120a30,30,0,0,1,60,0Z" transform="translate(878.5 3733.5) rotate(90)" fill="#ff004f" fill-rule="evenodd"/>
      <rect id="Rectangle_255" data-name="Rectangle 255" width="60" height="60" rx="30" transform="translate(638.5 3853.5) rotate(90)" fill="#00f7ef"/>
      <rect id="Rectangle_256" data-name="Rectangle 256" width="60" height="60" rx="30" transform="translate(698.5 3853.5) rotate(90)" fill="#ff004f"/>
      <rect id="Rectangle_257" data-name="Rectangle 257" width="30" height="30" rx="15" transform="translate(743.5 3868.5) rotate(90)" fill="#00a9ce"/>
      <path id="Path_702" data-name="Path 702" d="M180,210a30,30,0,0,1-30,30A30,30,0,0,1,180,210Zm-60,60a30,30,0,0,1,30-30A30,30,0,0,1,120,270Zm30-30a30,30,0,0,1-30-30A30,30,0,0,1,150,240Zm0,0a30,30,0,0,1,30,30A30,30,0,0,1,150,240Z" transform="translate(878.5 3733.5) rotate(90)" fill="#51c5d2" fill-rule="evenodd"/>
    </g>
    <g id="Group_41" data-name="Group 41" transform="translate(-858 -18)">
      <g id="Group_40" data-name="Group 40" transform="translate(190 3338)">
        <rect id="Rectangle_249" data-name="Rectangle 249" width="60" height="60" transform="translate(728 330) rotate(90)" fill="#06818e"/>
        <path id="Path_703" data-name="Path 703" d="M60,60h0Z" transform="translate(668 210)" fill="#06818e"/>
        <rect id="Rectangle_252" data-name="Rectangle 252" width="60" height="60" transform="translate(728 450) rotate(180)" fill="#ff004f"/>
        <path id="Path_692" data-name="Path 692" d="M360,180h30a30,30,0,0,1,30,30v29.5a.5.5,0,0,1-.5.5h0c-32.863,0-59.5-27.137-59.5-60Z" transform="translate(1088 630) rotate(180)"/>
        <path id="Path_693" data-name="Path 693" d="M360,180a30,30,0,0,1,0-60Z" transform="translate(848 30) rotate(90)" fill="#00f7ef" fill-rule="evenodd"/>
        <path id="Path_696" data-name="Path 696" d="M300,210a30,30,0,0,1,30-30h30v60H330a30,30,0,0,1-30-30Z" transform="translate(1088 630) rotate(180)" fill="#cd0040"/>
        <path id="Path_697" data-name="Path 697" d="M300,120a30,30,0,0,1,30,30A30,30,0,0,1,300,120Z" transform="translate(848 30) rotate(90)" fill="#00f7ef" fill-rule="evenodd"/>
        <path id="Path_698" data-name="Path 698" d="M420,180a30,30,0,0,1-30,30A30,30,0,0,1,420,180Z" transform="translate(1088 630) rotate(180)" fill="#00a9ce" fill-rule="evenodd"/>
        <path id="Path_699" data-name="Path 699" d="M355.973,75A30.01,30.01,0,0,1,304,75a30.01,30.01,0,0,1,51.973,0Z" transform="translate(368 210)" fill="#00f7ef" fill-rule="evenodd"/>
        <rect id="Rectangle_253" data-name="Rectangle 253" width="30" height="30" rx="15" transform="translate(773 435) rotate(180)" fill="#00f7ef"/>
      </g>
    </g>
  </g>
</svg>
